<?xml version="1.0" encoding="UTF-8" standalone="no"?>
<!-- Created with Inkscape (http://www.inkscape.org/) -->

<svg
   width="1000mm"
   height="210mm"
   viewBox="0 0 1000 210"
   version="1.1"
   id="svg5"
   inkscape:version="1.1.2 (b8e25be833, 2022-02-05)"
   sodipodi:docname="drawing.svg"
   xmlns:inkscape="http://www.inkscape.org/namespaces/inkscape"
   xmlns:sodipodi="http://sodipodi.sourceforge.net/DTD/sodipodi-0.dtd"
   xmlns="http://www.w3.org/2000/svg"
   xmlns:svg="http://www.w3.org/2000/svg">
  <sodipodi:namedview
     id="namedview7"
     pagecolor="#ffffff"
     bordercolor="#666666"
     borderopacity="1.0"
     inkscape:pageshadow="2"
     inkscape:pageopacity="0.0"
     inkscape:pagecheckerboard="0"
     inkscape:document-units="mm"
     showgrid="false"
     inkscape:snap-midpoints="true"
     inkscape:snap-global="true"
     inkscape:zoom="1.5073232"
     inkscape:cx="204.66745"
     inkscape:cy="288.92277"
     inkscape:window-width="1920"
     inkscape:window-height="1013"
     inkscape:window-x="-9"
     inkscape:window-y="-9"
     inkscape:window-maximized="1"
     inkscape:current-layer="layer2" />
  <defs
     id="defs2">
    <inkscape:path-effect
       effect="bspline"
       id="path-effect1836"
       is_visible="true"
       lpeversion="1"
       weight="33.333333"
       steps="2"
       helper_size="0"
       apply_no_weight="true"
       apply_with_weight="true"
       only_selected="false" />
    <inkscape:path-effect
       effect="bspline"
       id="path-effect1639"
       is_visible="true"
       lpeversion="1"
       weight="33.333333"
       steps="2"
       helper_size="0"
       apply_no_weight="true"
       apply_with_weight="true"
       only_selected="false" />
    <inkscape:path-effect
       effect="bspline"
       id="path-effect8624"
       is_visible="true"
       lpeversion="1"
       weight="33.333333"
       steps="2"
       helper_size="0"
       apply_no_weight="true"
       apply_with_weight="true"
       only_selected="false" />
    <inkscape:path-effect
       effect="bspline"
       id="path-effect1258"
       is_visible="true"
       lpeversion="1"
       weight="33.333333"
       steps="2"
       helper_size="0"
       apply_no_weight="true"
       apply_with_weight="true"
       only_selected="false" />
    <inkscape:path-effect
       effect="bspline"
       id="path-effect1071"
       is_visible="true"
       lpeversion="1"
       weight="33.333333"
       steps="2"
       helper_size="0"
       apply_no_weight="true"
       apply_with_weight="true"
       only_selected="false" />
    <inkscape:path-effect
       effect="bspline"
       id="path-effect1067"
       is_visible="true"
       lpeversion="1"
       weight="33.333333"
       steps="2"
       helper_size="0"
       apply_no_weight="true"
       apply_with_weight="true"
       only_selected="false" />
    <clipPath
       clipPathUnits="userSpaceOnUse"
       id="clipPath71078">
      <path
         id="path71080"
         style="fill:#ff0000;fill-opacity:1;fill-rule:nonzero;stroke:none;stroke-width:0.264583"
         d="m 164.47316,54.107292 v 48.711238 h 35.98437 V 54.107292 Z m 20.7238,34.365345 h 5.3e-4 c 0.0474,0.0024 0.0815,0.05826 0.0444,0.141592 -0.0103,0.02328 -0.023,0.04564 -0.031,0.06976 -0.011,0.03222 -0.0504,0.179017 -0.0574,0.222726 -0.007,0.04274 -0.0112,0.08575 -0.015,0.128675 0.0224,-0.05112 0.0461,-0.101391 0.0703,-0.151929 0.0256,-0.05582 0.0547,-0.08623 0.0848,-0.08527 0.03,0.0011 0.0608,0.0332 0.0899,0.10232 0.0103,0.0232 -0.003,0.05034 -0.005,0.07545 -8e-4,0.01132 -0.001,0.01521 -0.002,0.02273 0.0182,-0.01019 0.0343,-0.01434 0.0501,-0.0098 0.0638,-0.0573 0.15374,-0.120314 0.22169,-0.05633 0.0174,0.01656 0.0142,0.0462 0.0212,0.06925 -0.003,0.03703 0.003,0.07584 -0.002,0.112654 -7.9e-4,0.0058 -0.002,0.01124 -0.003,0.01707 0.004,0.0016 0.006,0.0042 0.008,0.0078 0.002,-7.94e-4 0.003,-0.0013 0.005,-0.0021 0.0444,-0.01728 0.0899,-0.03212 0.13539,-0.04651 0.0278,-0.0088 0.0551,-0.02146 0.0842,-0.02326 0.0241,-0.0016 0.0476,0.0094 0.0713,0.01394 -0.003,0.03899 0.003,0.08016 -0.004,0.118337 0.006,-0.0013 0.009,-0.0021 0.0155,-0.0036 0.0413,-0.0093 0.078,-0.01598 0.1204,-0.01138 0.0144,0.0016 0.0349,-0.0016 0.0419,0.01085 0.004,0.0077 0.008,0.01598 0.0114,0.02429 0.0559,-0.0213 0.11145,-0.04407 0.16588,-0.06924 0.0142,-0.0072 0.0287,-0.01431 0.0429,-0.0217 0.0111,-0.0058 0.022,-0.01167 0.0331,-0.01757 0.005,-0.0066 0.01,-0.0131 0.015,-0.01963 0.0744,-0.02678 0.11151,-0.06338 0.14004,0.04806 0.001,-5.29e-4 0.002,-0.0011 0.003,-0.0016 0.0201,-0.0096 0.0401,-0.019 0.0605,-0.02791 0.0138,-0.0074 0.0272,-0.01476 0.0408,-0.02273 0.0281,-0.01508 0.0409,-0.02268 0.0501,-0.01498 0.0498,-0.01974 0.10028,-0.03855 0.15038,-0.05736 0.0628,-0.02439 0.1035,-0.05837 0.1633,0.04289 0.003,0.0043 0.004,0.0093 0.004,0.01394 0.0121,0.0019 0.0235,0.0074 0.0248,0.01757 0.002,0.02365 -0.003,0.04707 -0.009,0.07028 0.0255,-0.01135 0.0512,-0.02259 0.077,-0.03307 0.0212,-0.0086 0.0434,-0.01466 0.0646,-0.02326 0.0154,-0.0063 0.0303,-0.01402 0.045,-0.02169 0.005,-0.0026 0.0105,-0.01299 0.0145,-0.0093 0.0191,0.01707 0.0347,0.03011 0.0486,0.04134 0.0348,-0.01296 0.0698,-0.02524 0.10542,-0.03566 0.0114,-0.007 0.0229,-0.01392 0.0341,-0.02119 0.005,-0.0033 0.0101,-0.0068 0.015,-0.01035 0.0102,-0.02466 0.0179,-0.04773 0.0537,-0.05736 0.0278,-0.0075 0.0576,0.0037 0.0863,0.0057 0.002,0.01609 0.007,0.032 0.0104,0.04806 0.0169,0.0087 0.0321,0.02103 0.0429,0.03617 0.0176,0.02413 0.008,0.0512 0.003,0.07545 -0.002,0.0076 -0.003,0.01704 -0.005,0.02635 0.003,-0.0028 0.007,-0.0055 0.0103,-0.0083 0.0427,-0.03363 0.0683,-0.05012 0.12041,-0.06666 -0.0208,-9.8e-5 0.0366,-0.006 0.0537,-5.29e-4 0.007,0.0024 0.015,0.0071 0.0233,0.01291 0.003,-0.01527 0.008,-0.03231 0.0165,-0.06615 l 0.002,5.29e-4 c 0.0163,-0.06518 0.0544,-0.09504 0.0889,-0.09508 0.0443,-5.8e-5 0.0825,0.04848 0.0615,0.132291 -0.0192,0.0764 -0.0182,0.05611 -0.0212,0.143145 -8e-4,0.01728 0.003,0.03455 0.001,0.05168 0.001,7.94e-4 0.002,0.0016 0.004,0.0026 0.0355,0.02747 0.0196,0.142946 0.0176,0.184486 -0.006,0.02373 -0.0103,0.0567 -0.0274,0.077 -0.0225,0.02668 -0.0512,0.04641 -0.0811,0.0646 -0.002,0.0054 -0.003,0.01114 -0.005,0.01654 -0.004,0.01527 -0.008,0.03072 -0.0155,0.04496 -0.007,0.01431 -0.0168,0.02646 -0.0258,0.03979 -0.003,7.94e-4 -0.007,0.0021 -0.01,0.0031 -0.01,0.01376 -0.0187,0.02109 -0.0191,0.0093 -4e-5,-7.93e-4 5.3e-4,-0.0019 5.3e-4,-0.0026 -0.0509,0.01828 -0.10758,0.03839 -0.11731,-0.05943 -7e-5,-7.94e-4 2e-5,-0.0013 0,-0.0021 -0.0376,-0.0066 -0.0725,-0.02657 -0.10852,-0.06667 -0.003,2.65e-4 -0.006,0.0019 -0.009,0.0011 -0.008,-0.0024 -0.0137,-0.0077 -0.0217,-0.01035 -0.003,-7.94e-4 -0.005,-0.0019 -0.007,-0.0026 -0.0313,0.02913 -0.057,0.04627 -0.0971,0.06201 -0.009,0.0037 -0.0215,0.01445 -0.0295,0.0078 -0.0309,-0.02699 -0.0527,-0.04413 -0.0672,-0.05684 -0.015,0.0059 -0.0344,0.01251 -0.0594,0.02222 -0.008,-0.01035 -0.0167,-0.01979 -0.0259,-0.02945 -0.002,-2.65e-4 -0.002,-2.28e-4 -0.002,-5.3e-4 1e-5,-1.64e-4 -0.009,2.9e-5 -0.0191,0.0011 -0.0111,0.006 -0.0252,0.0096 -0.0424,0.01035 -0.0984,0.0045 -0.11304,-0.02661 -0.0992,-0.06201 -0.009,0.0069 -0.0175,0.01392 -0.0269,0.02016 -0.0929,0.06161 -0.14229,0.08645 -0.23409,0.136424 -0.0317,0.01871 -0.0636,0.03728 -0.0951,0.05633 -0.0615,0.03719 -0.0964,0.08114 -0.11007,-0.04496 -0.0471,-0.02387 -0.0421,-0.04053 -0.0171,-0.05891 -0.004,-0.0089 -0.009,-0.01955 -0.0139,-0.03255 -0.0259,0.01722 -0.052,0.03432 -0.0796,0.04857 -0.0948,0.04897 -0.13577,0.06158 -0.22737,0.0956 -0.075,0.0177 -0.12396,0.02259 -0.1323,-0.01138 -0.034,0.0065 -0.0871,0.01447 -0.0977,0.0047 -0.0304,-0.02843 -0.0431,-0.07127 -0.0646,-0.106971 0.0132,-0.01021 0.0258,-0.02133 0.0388,-0.03204 -0.0538,0.01868 -0.0936,0.0284 -0.17105,0.04909 -0.007,-0.0021 -0.0155,-0.0027 -0.0243,-0.0031 -0.009,0.0026 -0.0186,0.0058 -0.0279,0.0083 -5.3e-4,-0.0033 -0.001,-0.0065 -0.002,-0.0098 h -5.3e-4 c -0.0131,-0.0019 -0.0235,-0.0066 -0.0274,-0.0181 -0.009,-0.02421 -0.0129,-0.04515 -0.0134,-0.06356 -0.1784,0.07184 -0.36639,0.115496 -0.55449,0.154514 -0.0127,0.0055 -0.0261,0.0097 -0.0403,0.01138 -0.008,0.0011 -0.0167,0.0046 -0.0248,0.0057 0,0 -5.3e-4,0 -5.3e-4,0 -8e-4,2.65e-4 -0.002,5.29e-4 -0.003,0.0011 -7.9e-4,2.64e-4 -0.001,7.93e-4 -0.002,0.0011 -0.0111,0.0049 -0.0213,0.0083 -0.0253,-5.29e-4 -0.004,-0.0079 -0.007,-0.01598 -0.009,-0.02429 -0.003,-0.0024 -0.005,-0.0052 -0.007,-0.0078 0.0142,0.05926 0.0463,0.127682 0.12609,0.324011 0.1055,0.259527 0.13038,0.329674 0.34365,0.506428 0.10753,0.08912 0.10467,0.0725 0.19947,0.04392 -0.003,-0.008 -0.007,-0.0163 -0.0103,-0.02429 -0.0591,-0.141748 0.23745,-0.0029 0.12092,0.09715 -0.0315,0.02701 -0.0625,0.05412 -0.094,0.08113 -0.0538,0.0013 -0.10995,0.0182 -0.16175,0.0036 -0.0618,-0.01717 -0.11894,-0.05305 -0.16743,-0.09509 -0.22288,-0.193331 -0.27091,-0.290496 -0.37672,-0.562239 -0.0552,-0.14178 -0.11212,-0.284541 -0.14521,-0.433049 -0.005,-0.02368 -0.006,-0.04759 -0.006,-0.07183 -0.0109,-2.65e-4 -0.0225,-0.0019 -0.0351,-0.0047 -0.006,-0.0013 -0.0109,-0.0024 -0.016,-0.0036 -0.002,0.0205 -0.005,0.04013 -0.0207,0.04857 -0.0238,0.01238 -0.043,0.0172 -0.0594,0.01757 -0.009,0.04497 -0.0209,0.07415 -0.0527,0.0217 -0.006,-0.01021 -0.0138,-0.02008 -0.0196,-0.03049 0.0268,0.102563 0.0549,0.204817 0.0868,0.305925 0.004,0.01159 0.0234,0.0302 0.0119,0.0341 -0.0474,0.01619 -0.0999,0.0087 -0.14986,0.01291 -0.005,2.65e-4 -0.007,7.94e-4 -0.0104,0.0011 2.4e-4,0.0013 2.2e-4,0.0027 5.3e-4,0.0041 0.0691,0.0011 0.27203,-0.0035 0.1633,0.01188 -0.0503,0.0071 -0.10049,0.02709 -0.15089,0.02119 -0.0119,-0.0013 -0.0107,-0.01923 -0.0124,-0.03307 -0.0246,-2.64e-4 -0.0305,-0.0013 -5.3e-4,-0.0041 -2.3e-4,-0.0013 -8e-5,-0.0024 -5.3e-4,-0.0036 -0.035,-0.111231 -0.0664,-0.223531 -0.0956,-0.336415 -0.0347,-0.136631 -0.0712,-0.27328 -0.0925,-0.412896 -0.004,-0.0289 -0.006,-0.05817 -0.008,-0.08733 -0.009,-0.126042 -0.008,-0.09565 -0.008,-0.19482 h -5.3e-4 c 0,-0.07375 0.0356,-0.112329 0.0729,-0.11524 h 5.3e-4 c 0.0398,-0.0021 0.0806,0.03637 0.0806,0.11524 0,0.03377 0.002,0.05017 0.003,0.06459 0.0144,0.0067 0.0278,0.0213 0.0403,0.03928 0.0115,-0.01013 0.025,-0.01611 0.0382,-0.01757 0.0214,-0.0024 0.0427,0.0076 0.0584,0.02842 0.005,-0.0021 0.0102,-0.0036 0.0155,-0.0041 7.9e-4,-8.2e-5 0.002,5.3e-4 0.003,5.3e-4 0.008,-0.0047 0.0177,-0.0071 0.0279,-0.0078 0.0173,-7.93e-4 0.037,0.0052 0.0563,0.01913 0.0139,0.006 0.0256,0.01894 0.0351,0.03566 2.3e-4,2.64e-4 2.4e-4,7.94e-4 5.3e-4,0.0011 0.002,0.0024 0.003,0.0047 0.005,0.0072 0.0286,0.04291 0.035,0.04946 0.0476,0.0832 0.008,-0.224022 0.0307,-0.448236 0.12661,-0.653708 0.0262,-0.05629 0.0647,-0.07989 0.0966,-0.07855 z m 0.40773,0.581358 c -7.9e-4,2.65e-4 -0.002,5.3e-4 -0.003,0.0011 0.002,2.64e-4 0.003,5.29e-4 0.005,0.0011 0,2.01e-4 -10e-4,-0.0024 -0.002,-0.0021 z m -0.0935,0.06718 c -0.005,0.0051 -0.0126,0.01233 -0.0202,0.01963 -1.6e-4,7.94e-4 -2.4e-4,0.0019 -5.3e-4,0.0026 0.006,-0.0045 0.012,-0.0089 0.0186,-0.01291 8e-4,-0.0031 0.002,-0.0062 0.002,-0.0093 z m 1.5472,0.06304 c -0.007,0.0091 -0.0108,0.01423 -0.0165,0.0217 0.002,-7.94e-4 0.003,-0.0013 0.005,-0.0021 0.007,-0.0034 0.0169,-0.02574 0.0119,-0.01963 z m 0.79375,0.198953 c -2e-5,5.29e-4 1e-5,0.0011 0,0.0016 0.003,0.0037 0.006,0.0055 0.007,0.0041 -0.002,-0.0019 -0.005,-0.0038 -0.007,-0.0057 z m -0.15297,0.0739 c -0.004,0.0054 -0.007,0.0108 -0.0108,0.01601 0.004,0.0024 0.008,0.0042 0.0114,0.0067 -2.5e-4,-0.0077 -5.3e-4,-0.01506 -5.3e-4,-0.02273 z m -2.97449,0.06666 c 5.3e-4,7.94e-4 0.001,0.0024 0.002,0.0031 -2.7e-4,-0.0011 -8e-4,-0.0021 -10e-4,-0.0031 z m 0.002,0.0031 c 0.006,0.02254 0.0111,0.04518 0.0171,0.0677 -5.3e-4,-0.0091 9e-5,-0.0186 5.3e-4,-0.02791 -0.002,-0.0041 -0.004,-0.0078 -0.006,-0.01188 -0.006,-0.01574 -0.008,-0.02072 -0.0114,-0.02791 z m 3.0117,0.0894 c -0.002,7.93e-4 -0.004,0.0019 -0.006,0.0026 5.3e-4,0.0019 7.9e-4,0.0029 0.001,0.0041 0.002,-0.0019 0.003,-0.0039 0.005,-0.0057 9e-5,-2.65e-4 -1e-4,-5.3e-4 0,-0.0011 z" />
    </clipPath>
    <clipPath
       clipPathUnits="userSpaceOnUse"
       id="clipPath71088">
      <path
         id="path71090"
         style="fill:#ff0000;fill-opacity:1;fill-rule:nonzero;stroke:none;stroke-width:0.264583"
         d="m 188.0154,72.087589 v 16.942636 c 0.001,0.0093 0.001,0.019 0,0.02997 V 89.347 c 0.002,0.02056 0.001,0.0434 0,0.0646 v 6.062681 h 7.37526 V 72.087589 Z" />
    </clipPath>
    <clipPath
       clipPathUnits="userSpaceOnUse"
       id="clipPath71098">
      <path
         id="path71100"
         style="fill:#ff0000;fill-opacity:1;fill-rule:nonzero;stroke:none;stroke-width:0.264583"
         d="m 164.33467,61.555416 v 59.717804 h 67.39692 V 61.555416 Z m 20.86229,26.917221 h 5.3e-4 c 0.0474,0.0024 0.0815,0.05826 0.0444,0.141592 -0.0103,0.02328 -0.023,0.04564 -0.031,0.06976 -0.011,0.03222 -0.0504,0.179017 -0.0574,0.222726 -0.006,0.03948 -0.007,0.07921 -0.0109,0.118856 0.0212,-0.04777 0.0436,-0.09478 0.0661,-0.14211 0.0256,-0.05582 0.0546,-0.08623 0.0848,-0.08527 0.03,0.0011 0.0608,0.0332 0.0899,0.10232 0.0103,0.0232 -0.003,0.05034 -0.005,0.07545 -7.9e-4,0.01132 -0.001,0.01521 -0.002,0.02273 0.0182,-0.01019 0.0343,-0.01434 0.0501,-0.0098 0.0639,-0.0573 0.15374,-0.120314 0.22169,-0.05633 0.0174,0.01656 0.0142,0.0462 0.0212,0.06925 -0.003,0.03703 0.003,0.07584 -0.002,0.112654 -7.9e-4,0.0058 -0.002,0.01124 -0.003,0.01707 0.004,0.0016 0.006,0.0042 0.008,0.0078 0.002,-7.94e-4 0.003,-0.0013 0.005,-0.0021 0.0444,-0.01728 0.0899,-0.03212 0.13539,-0.04651 0.0278,-0.0088 0.0551,-0.02146 0.0842,-0.02326 0.0241,-0.0016 0.0476,0.0094 0.0713,0.01394 -0.003,0.03899 0.003,0.08016 -0.004,0.118337 0.006,-0.0013 0.009,-0.0021 0.0155,-0.0036 0.0413,-0.0093 0.078,-0.01598 0.12041,-0.01138 0.0144,0.0016 0.0348,-0.0016 0.0418,0.01085 0.005,0.0077 0.008,0.01598 0.0114,0.02429 0.0559,-0.0213 0.11145,-0.04407 0.16588,-0.06924 0.0142,-0.0072 0.0287,-0.01431 0.0429,-0.0217 0.0111,-0.0058 0.022,-0.01167 0.0331,-0.01757 0.005,-0.0066 0.01,-0.0131 0.015,-0.01963 0.0744,-0.02678 0.11152,-0.06338 0.14005,0.04806 0.001,-5.29e-4 0.002,-0.0011 0.003,-0.0016 0.0201,-0.0096 0.0401,-0.019 0.0605,-0.02791 0.0138,-0.0074 0.0272,-0.01476 0.0408,-0.02273 0.0281,-0.01508 0.0409,-0.02268 0.0501,-0.01498 0.0498,-0.01974 0.10027,-0.03855 0.15037,-0.05736 0.0628,-0.02439 0.10349,-0.05837 0.1633,0.04289 0.003,0.0043 0.004,0.0093 0.004,0.01394 0.0121,0.0019 0.0235,0.0074 0.0248,0.01757 0.002,0.02365 -0.003,0.04707 -0.009,0.07028 0.0255,-0.01135 0.0512,-0.02259 0.077,-0.03307 0.0212,-0.0086 0.0434,-0.01466 0.0646,-0.02326 0.0154,-0.0063 0.0302,-0.01402 0.045,-0.02169 0.005,-0.0026 0.0101,-0.01299 0.0139,-0.0093 0.0192,0.01707 0.0347,0.03011 0.0486,0.04134 0.0348,-0.01296 0.0698,-0.02524 0.10542,-0.03566 0.0114,-0.007 0.0229,-0.01392 0.0341,-0.02119 0.005,-0.0033 0.0101,-0.0068 0.015,-0.01035 0.0102,-0.02466 0.018,-0.04773 0.0537,-0.05736 0.0278,-0.0075 0.0576,0.0037 0.0863,0.0057 0.002,0.0159 0.007,0.03165 0.0103,0.04754 0.0172,0.0087 0.0325,0.02135 0.0434,0.03669 0.0176,0.02413 0.008,0.0512 0.003,0.07545 -0.002,0.0076 -0.003,0.01704 -0.005,0.02635 0.003,-0.0028 0.007,-0.0055 0.0103,-0.0083 0.0427,-0.03363 0.0683,-0.05012 0.12041,-0.06666 -0.0208,-9.8e-5 0.0366,-0.006 0.0537,-5.29e-4 0.007,0.0024 0.015,0.0071 0.0233,0.01291 0.003,-0.01527 0.008,-0.03231 0.0165,-0.06615 l 0.002,5.29e-4 c 0.0163,-0.06518 0.0544,-0.09504 0.0889,-0.09508 0.0443,-5.8e-5 0.0825,0.04848 0.0615,0.132291 -0.0192,0.0764 -0.0182,0.05611 -0.0212,0.143145 -8e-4,0.01728 0.003,0.03455 0.001,0.05168 0.001,7.94e-4 0.002,0.0016 0.004,0.0026 0.0355,0.02747 0.0196,0.142946 0.0176,0.184486 -0.006,0.02373 -0.0103,0.0567 -0.0274,0.077 -0.0225,0.02668 -0.0512,0.04641 -0.0811,0.0646 -0.002,0.0054 -0.003,0.01114 -0.005,0.01654 -0.004,0.01527 -0.008,0.03072 -0.0155,0.04496 -0.007,0.01431 -0.0168,0.02646 -0.0258,0.03979 -0.003,7.94e-4 -0.007,0.0021 -0.01,0.0031 -0.01,0.01376 -0.0187,0.02109 -0.0191,0.0093 -4e-5,-7.93e-4 5.2e-4,-0.0019 5.2e-4,-0.0026 -0.0509,0.01828 -0.10757,0.03839 -0.1173,-0.05943 -7e-5,-7.94e-4 2e-5,-0.0013 0,-0.0021 -0.0376,-0.0066 -0.0725,-0.02657 -0.10852,-0.06667 -0.003,2.65e-4 -0.006,0.0019 -0.009,0.0011 -0.008,-0.0024 -0.0137,-0.0077 -0.0217,-0.01035 -0.003,-7.94e-4 -0.005,-0.0019 -0.007,-0.0026 -0.0313,0.02913 -0.057,0.04627 -0.0971,0.06201 -0.009,0.0037 -0.0215,0.01445 -0.0295,0.0078 -0.0309,-0.02699 -0.0527,-0.04413 -0.0672,-0.05684 -0.015,0.0059 -0.0344,0.01251 -0.0594,0.02222 -0.008,-0.01035 -0.0167,-0.01979 -0.0259,-0.02945 -0.002,-2.65e-4 -0.002,-2.28e-4 -0.002,-5.3e-4 1e-5,-1.64e-4 -0.009,2.9e-5 -0.0191,0.0011 -0.0111,0.006 -0.0252,0.0096 -0.0424,0.01035 -0.0984,0.0045 -0.11303,-0.02661 -0.0992,-0.06201 -0.009,0.0069 -0.0175,0.01392 -0.0269,0.02016 -0.0929,0.06161 -0.14229,0.08645 -0.23409,0.136424 -0.0317,0.01871 -0.0636,0.03728 -0.0951,0.05633 -0.0615,0.03719 -0.0964,0.08114 -0.11007,-0.04496 -0.0471,-0.02387 -0.0421,-0.04053 -0.0171,-0.05891 -0.004,-0.0089 -0.009,-0.01955 -0.0139,-0.03255 -0.0259,0.01722 -0.052,0.03432 -0.0796,0.04857 -0.0948,0.04897 -0.13576,0.06158 -0.22737,0.0956 -0.075,0.0177 -0.12396,0.02259 -0.1323,-0.01138 -0.034,0.0065 -0.0871,0.01447 -0.0977,0.0047 -0.0304,-0.02843 -0.0431,-0.07127 -0.0646,-0.106971 0.0132,-0.01021 0.0258,-0.02133 0.0388,-0.03204 -0.0538,0.01868 -0.0936,0.0284 -0.17105,0.04909 -0.007,-0.0021 -0.0155,-0.0027 -0.0243,-0.0031 -0.009,0.0026 -0.0186,0.0058 -0.0279,0.0083 -5.3e-4,-0.0033 -0.001,-0.0065 -0.002,-0.0098 h -5.3e-4 c -0.0131,-0.0019 -0.0235,-0.0066 -0.0274,-0.0181 -0.009,-0.02421 -0.0129,-0.04515 -0.0134,-0.06356 -0.17841,0.07184 -0.3664,0.115496 -0.55449,0.154514 -0.0127,0.0055 -0.0261,0.0097 -0.0403,0.01138 -0.008,0.0011 -0.0167,0.0046 -0.0248,0.0057 -2.7e-4,1.33e-4 -8e-4,-1.32e-4 -0.001,0 -8e-4,2.65e-4 -0.002,5.29e-4 -0.003,0.0011 -7.9e-4,2.64e-4 -0.001,7.93e-4 -0.002,0.0011 -0.0111,0.0049 -0.0213,0.0083 -0.0253,-5.29e-4 -0.004,-0.0079 -0.007,-0.01598 -0.009,-0.02429 -0.003,-0.0024 -0.005,-0.0052 -0.007,-0.0078 0.0142,0.05926 0.0463,0.127682 0.12609,0.324011 0.1055,0.259527 0.13038,0.329674 0.34365,0.506428 0.10752,0.08912 0.10467,0.0725 0.19947,0.04392 -0.003,-0.008 -0.007,-0.0163 -0.0104,-0.02429 -0.0591,-0.141748 0.23746,-0.0029 0.12092,0.09715 -0.0315,0.02701 -0.0624,0.05412 -0.094,0.08113 -0.0538,0.0013 -0.10995,0.0182 -0.16175,0.0036 -0.0618,-0.01717 -0.11894,-0.05305 -0.16743,-0.09509 -0.22288,-0.193331 -0.27091,-0.290496 -0.37672,-0.562239 -0.0552,-0.14178 -0.11212,-0.284541 -0.14522,-0.433049 -0.005,-0.02358 -0.004,-0.0477 -0.004,-0.07183 -0.0115,-2.23e-4 -0.0238,-0.0016 -0.0372,-0.0047 -0.006,-0.0013 -0.0114,-0.0024 -0.0165,-0.0036 -0.002,0.0205 -0.005,0.04013 -0.0207,0.04857 -0.0238,0.01238 -0.043,0.0172 -0.0594,0.01757 -0.009,0.04497 -0.0214,0.07415 -0.0532,0.0217 -0.006,-0.01021 -0.0138,-0.02008 -0.0196,-0.03049 0.0268,0.102563 0.0549,0.204817 0.0868,0.305925 0.004,0.01159 0.0234,0.0302 0.0119,0.0341 -0.0474,0.01619 -0.0999,0.0087 -0.14986,0.01291 -0.005,2.65e-4 -0.007,7.94e-4 -0.0104,0.0011 2.4e-4,0.0013 2e-4,0.0027 5.3e-4,0.0041 0.0691,0.0011 0.27203,-0.0035 0.1633,0.01188 -0.0503,0.0071 -0.10051,0.02709 -0.1509,0.02119 -0.0119,-0.0013 -0.0107,-0.01923 -0.0124,-0.03307 -0.0246,-2.64e-4 -0.0305,-0.0013 -5.3e-4,-0.0041 -2.3e-4,-0.0013 -7e-5,-0.0024 -5.3e-4,-0.0036 -0.035,-0.111231 -0.0659,-0.223531 -0.0951,-0.336415 -0.0347,-0.136631 -0.0717,-0.27328 -0.093,-0.412896 -0.004,-0.0289 -0.006,-0.05817 -0.008,-0.08733 -0.009,-0.126042 -0.008,-0.09565 -0.008,-0.19482 h -5.3e-4 c 0,-0.07375 0.0361,-0.112329 0.0734,-0.11524 h 5.3e-4 c 0.0398,-0.0021 0.0806,0.03637 0.0806,0.11524 0,0.03377 0.002,0.05017 0.003,0.06459 0.0144,0.0067 0.0278,0.0213 0.0403,0.03928 0.0115,-0.01013 0.0248,-0.01611 0.0382,-0.01757 0.0214,-0.0024 0.0427,0.0076 0.0584,0.02842 0.005,-0.0021 0.0102,-0.0036 0.0155,-0.0041 7.9e-4,-8.2e-5 0.002,5.3e-4 0.003,5.3e-4 0.008,-0.0047 0.0177,-0.0071 0.0279,-0.0078 0.0173,-7.93e-4 0.0365,0.0052 0.0558,0.01913 0.0137,0.006 0.0251,0.01868 0.0346,0.03514 l 5.3e-4,5.29e-4 c 0.002,0.0026 0.004,0.0054 0.006,0.0083 0.0284,0.04256 0.0352,0.04913 0.0476,0.08217 0.008,-0.223676 0.0309,-0.447518 0.1266,-0.652674 0.0262,-0.05631 0.0642,-0.07991 0.0961,-0.07855 z m 0.40773,0.581358 c -7.9e-4,2.65e-4 -0.002,5.3e-4 -0.003,0.0011 0.002,2.64e-4 0.003,5.29e-4 0.005,0.0011 0,2.01e-4 -10e-4,-0.0024 -0.002,-0.0021 z m -0.0935,0.06718 c -0.005,0.0051 -0.0126,0.01233 -0.0202,0.01963 -1.6e-4,7.94e-4 -2.4e-4,0.0019 -5.3e-4,0.0026 0.006,-0.0045 0.012,-0.0089 0.0186,-0.01291 8e-4,-0.0031 0.002,-0.0062 0.002,-0.0093 z m 1.5472,0.06304 c -0.007,0.0091 -0.0108,0.01423 -0.0165,0.0217 0.002,-7.94e-4 0.003,-0.0013 0.005,-0.0021 0.007,-0.0034 0.0169,-0.02574 0.0119,-0.01963 z m 0.79375,0.198953 c -2e-5,5.29e-4 1e-5,0.0011 0,0.0016 0.003,0.0037 0.006,0.0055 0.007,0.0041 -0.002,-0.0019 -0.005,-0.0038 -0.007,-0.0057 z m -0.15297,0.0739 c -0.004,0.0054 -0.007,0.0108 -0.0108,0.01601 0.004,0.0024 0.008,0.0042 0.0114,0.0067 -2.5e-4,-0.0077 -5.3e-4,-0.01506 -5.3e-4,-0.02273 z m -2.97449,0.06666 c 5.3e-4,7.94e-4 0.001,0.0024 0.002,0.0031 -2.7e-4,-0.0011 -8e-4,-0.0021 -10e-4,-0.0031 z m 0.002,0.0031 c 0.006,0.02254 0.0111,0.04518 0.0171,0.0677 -5.3e-4,-0.0091 9e-5,-0.0186 5.3e-4,-0.02791 -0.002,-0.0041 -0.004,-0.0078 -0.006,-0.01188 -0.006,-0.01574 -0.008,-0.02072 -0.0114,-0.02791 z m 3.0117,0.0894 c -0.002,7.93e-4 -0.004,0.0019 -0.006,0.0026 5.3e-4,0.0019 7.9e-4,0.0029 0.001,0.0041 0.002,-0.0019 0.003,-0.0039 0.005,-0.0057 9e-5,-2.65e-4 -1e-4,-5.3e-4 0,-0.0011 z" />
    </clipPath>
    <clipPath
       clipPathUnits="userSpaceOnUse"
       id="clipPath71108">
      <path
         id="path71110"
         style="fill:#ff0000;fill-opacity:1;fill-rule:nonzero;stroke:none;stroke-width:0.264583"
         d="M 14.919503,76.180363 V 158.11076 H 245.39432 V 76.180363 Z M 185.19748,88.472637 h 5.3e-4 c 0.0472,0.0027 0.0809,0.05852 0.0439,0.141592 -0.0103,0.02328 -0.023,0.04564 -0.031,0.06976 -0.011,0.03222 -0.0504,0.179017 -0.0574,0.222726 -0.006,0.03577 -0.003,0.07209 -0.006,0.108003 0.0198,-0.04409 0.0406,-0.08749 0.0615,-0.131257 0.0256,-0.05582 0.0547,-0.08623 0.0848,-0.08527 0.03,0.0011 0.0608,0.0332 0.0899,0.10232 0.0103,0.0232 -0.003,0.05034 -0.005,0.07545 -8e-4,0.01132 -0.001,0.01521 -0.002,0.02273 0.0182,-0.01019 0.0343,-0.01434 0.0501,-0.0098 0.0638,-0.0573 0.15374,-0.120314 0.22169,-0.05633 0.0174,0.01656 0.0142,0.0462 0.0212,0.06925 -0.003,0.03703 0.003,0.07584 -0.002,0.112654 -8e-4,0.0058 -0.002,0.01124 -0.003,0.01707 0.004,0.0016 0.006,0.0042 0.008,0.0078 0.002,-7.94e-4 0.003,-0.0013 0.005,-0.0021 0.0444,-0.01728 0.0899,-0.03212 0.13539,-0.04651 0.0278,-0.0088 0.0551,-0.02146 0.0842,-0.02326 0.0241,-0.0016 0.0476,0.0094 0.0713,0.01394 -0.003,0.03899 0.003,0.08016 -0.004,0.118337 0.006,-0.0013 0.009,-0.0021 0.0155,-0.0036 0.0413,-0.0093 0.078,-0.01598 0.1204,-0.01138 0.0144,0.0016 0.0349,-0.0016 0.0419,0.01085 0.005,0.0077 0.008,0.01598 0.0114,0.02429 0.0559,-0.0213 0.11145,-0.04407 0.16588,-0.06924 0.0142,-0.0072 0.0287,-0.01431 0.0429,-0.0217 0.0111,-0.0058 0.022,-0.01167 0.0331,-0.01757 0.005,-0.0066 0.01,-0.0131 0.015,-0.01963 0.0744,-0.02678 0.11202,-0.06338 0.14056,0.04806 0.001,-5.29e-4 0.002,-0.0011 0.003,-0.0016 0.0201,-0.0096 0.0401,-0.019 0.0605,-0.02791 0.0138,-0.0074 0.0272,-0.01476 0.0408,-0.02273 0.0281,-0.01508 0.0409,-0.02268 0.0501,-0.01498 0.0498,-0.01974 0.10028,-0.03855 0.15038,-0.05736 0.0628,-0.02439 0.10349,-0.05837 0.16329,0.04289 0.003,0.0043 0.004,0.0093 0.004,0.01394 0.0121,0.0019 0.0235,0.0074 0.0248,0.01757 0.002,0.02365 -0.003,0.04707 -0.009,0.07028 0.0255,-0.01135 0.0512,-0.02259 0.077,-0.03307 0.0212,-0.0086 0.0434,-0.01466 0.0646,-0.02326 0.0154,-0.0063 0.0303,-0.01402 0.045,-0.02169 0.005,-0.0026 0.0101,-0.01299 0.0139,-0.0093 0.0192,0.01707 0.0347,0.03011 0.0486,0.04134 0.0348,-0.01296 0.0698,-0.02524 0.10542,-0.03566 0.0114,-0.007 0.0229,-0.01392 0.0341,-0.02119 0.005,-0.0033 0.0101,-0.0068 0.015,-0.01035 0.0102,-0.02466 0.018,-0.04773 0.0537,-0.05736 0.0278,-0.0075 0.0576,0.0037 0.0863,0.0057 0.002,0.01532 0.004,0.03069 0.007,0.04599 0.0183,0.0087 0.0345,0.02209 0.046,0.03824 0.0176,0.02413 0.008,0.0512 0.003,0.07545 -0.002,0.0076 -0.003,0.01704 -0.005,0.02635 0.003,-0.0028 0.007,-0.0055 0.0103,-0.0083 0.0427,-0.03363 0.0683,-0.05012 0.12041,-0.06666 -0.0208,-9.8e-5 0.0366,-0.006 0.0537,-5.29e-4 0.007,0.0024 0.015,0.0071 0.0233,0.01291 0.003,-0.01527 0.008,-0.03231 0.0165,-0.06615 l 0.002,5.29e-4 c 0.0163,-0.06518 0.0544,-0.09504 0.0889,-0.09508 0.0443,-5.8e-5 0.0825,0.04848 0.0615,0.132291 -0.0192,0.0764 -0.0182,0.05611 -0.0212,0.143145 -8e-4,0.01728 0.003,0.03455 0.001,0.05168 0.001,7.94e-4 0.002,0.0016 0.004,0.0026 0.0355,0.02747 0.0196,0.142946 0.0176,0.184486 -0.006,0.02373 -0.0103,0.0567 -0.0274,0.077 -0.0225,0.02668 -0.0512,0.04641 -0.0811,0.0646 -0.002,0.0054 -0.003,0.01114 -0.005,0.01654 -0.004,0.01527 -0.008,0.03072 -0.0155,0.04496 -0.007,0.01431 -0.0168,0.02646 -0.0258,0.03979 -0.003,7.94e-4 -0.007,0.0021 -0.01,0.0031 -0.01,0.01376 -0.0187,0.02109 -0.0191,0.0093 -3e-5,-7.93e-4 5.3e-4,-0.0019 5.3e-4,-0.0026 -0.0509,0.01828 -0.10758,0.03839 -0.11731,-0.05943 -7e-5,-7.94e-4 2e-5,-0.0013 0,-0.0021 -0.0376,-0.0066 -0.0725,-0.02657 -0.10852,-0.06667 -0.003,2.65e-4 -0.006,0.0019 -0.009,0.0011 -0.008,-0.0024 -0.0137,-0.0077 -0.0217,-0.01035 -0.003,-7.94e-4 -0.005,-0.0019 -0.007,-0.0026 -0.0313,0.02913 -0.057,0.04627 -0.0971,0.06201 -0.009,0.0037 -0.0215,0.01445 -0.0295,0.0078 -0.0309,-0.02699 -0.0527,-0.04413 -0.0672,-0.05684 -0.015,0.0059 -0.0344,0.01251 -0.0594,0.02222 -0.008,-0.01035 -0.0167,-0.01979 -0.0259,-0.02945 -0.002,-2.65e-4 -0.002,-2.28e-4 -0.002,-5.3e-4 2e-5,-1.64e-4 -0.009,2.9e-5 -0.0191,0.0011 -0.0111,0.006 -0.0252,0.0096 -0.0424,0.01035 -0.0984,0.0045 -0.11304,-0.02661 -0.0992,-0.06201 -0.009,0.0069 -0.0175,0.01392 -0.0269,0.02016 -0.0929,0.06161 -0.14229,0.08645 -0.23409,0.136424 -0.0317,0.01871 -0.0636,0.03728 -0.0951,0.05633 -0.0615,0.03719 -0.0964,0.08114 -0.11007,-0.04496 -0.0471,-0.02387 -0.0421,-0.04053 -0.0171,-0.05891 -0.004,-0.0089 -0.009,-0.01955 -0.0139,-0.03255 -0.0259,0.01722 -0.052,0.03432 -0.0796,0.04857 -0.0948,0.04897 -0.13578,0.06158 -0.22738,0.0956 -0.075,0.0177 -0.12396,0.02259 -0.13229,-0.01138 -0.034,0.0065 -0.0871,0.01447 -0.0977,0.0047 -0.0304,-0.02843 -0.0431,-0.07127 -0.0646,-0.106971 0.0132,-0.01021 0.0258,-0.02133 0.0388,-0.03204 -0.0538,0.01868 -0.0936,0.0284 -0.17105,0.04909 -0.007,-0.0021 -0.0155,-0.0027 -0.0243,-0.0031 -0.009,0.0026 -0.0186,0.0058 -0.0279,0.0083 -5.3e-4,-0.0033 -0.001,-0.0065 -0.002,-0.0098 h -5.3e-4 c -0.0131,-0.0019 -0.0235,-0.0066 -0.0274,-0.0181 -0.009,-0.02421 -0.0129,-0.04515 -0.0134,-0.06356 -0.17839,0.07184 -0.36638,0.115496 -0.55448,0.154514 -0.0127,0.0055 -0.0261,0.0097 -0.0403,0.01138 -0.008,0.0011 -0.0167,0.0046 -0.0248,0.0057 -2.6e-4,1.33e-4 -8e-4,-1.32e-4 -0.001,0 -7.9e-4,2.65e-4 -0.002,5.29e-4 -0.003,0.0011 -7.9e-4,2.64e-4 -0.001,7.93e-4 -0.002,0.0011 -0.01,0.0043 -0.0186,0.0069 -0.0233,0.0016 0.0177,0.06152 0.0481,0.143799 0.10749,0.289907 0.1055,0.259527 0.13038,0.329673 0.34365,0.506428 0.10753,0.08912 0.10467,0.0725 0.19947,0.04392 -0.003,-0.008 -0.007,-0.0163 -0.0104,-0.02429 -0.0591,-0.141748 0.23746,-0.0029 0.12093,0.09715 -0.0315,0.02701 -0.0625,0.05412 -0.0941,0.08113 -0.0538,0.0013 -0.10995,0.0182 -0.16175,0.0036 -0.0618,-0.01717 -0.11893,-0.05307 -0.16743,-0.09509 -0.22287,-0.193331 -0.27091,-0.290496 -0.37672,-0.562239 -0.0552,-0.14178 -0.11212,-0.284541 -0.14521,-0.433049 -0.005,-0.02339 1.4e-4,-0.04789 5.2e-4,-0.07183 -0.0126,9e-5 -0.0264,-0.0013 -0.0413,-0.0047 -0.008,-0.0019 -0.0151,-0.0034 -0.0217,-0.0052 -8e-4,0.0034 -0.003,0.0061 -0.003,0.0098 2.4e-4,5.29e-4 2.1e-4,0.0013 5.3e-4,0.0021 5.3e-4,0.0016 -0.002,0.0057 -0.002,0.0041 -2e-5,-7.94e-4 -4e-5,-0.0013 0,-0.0021 -0.002,0.0131 8e-4,0.03036 -0.0103,0.03617 -0.0238,0.01238 -0.043,0.0172 -0.0594,0.01757 -0.009,0.04497 -0.0214,0.07416 -0.0532,0.0217 -0.006,-0.01021 -0.0128,-0.02008 -0.0186,-0.03049 0.0268,0.102563 0.0544,0.204817 0.0863,0.305925 0.004,0.01159 0.0239,0.0302 0.0124,0.0341 -0.0474,0.01619 -0.0999,0.0087 -0.14986,0.01291 -0.005,2.65e-4 -0.007,7.94e-4 -0.0103,0.0011 2.3e-4,0.0013 2.5e-4,0.0027 5.3e-4,0.0041 0.0691,0.0011 0.27203,-0.0035 0.16329,0.01188 -0.0503,0.0071 -0.10049,0.02709 -0.15089,0.02119 -0.0119,-0.0013 -0.0107,-0.01923 -0.0124,-0.03307 -0.0246,-2.65e-4 -0.0305,-0.0013 -5.3e-4,-0.0041 -2.3e-4,-0.0013 -1.1e-4,-0.0024 -5.3e-4,-0.0036 -0.035,-0.111229 -0.0659,-0.223531 -0.0951,-0.336415 -0.0347,-0.136631 -0.0717,-0.273281 -0.093,-0.412896 -0.004,-0.0289 -0.006,-0.05817 -0.008,-0.08733 -0.009,-0.126042 -0.008,-0.09565 -0.008,-0.194821 h -5.3e-4 c 0,-0.07383 0.0355,-0.1124 0.0729,-0.115239 h 5.3e-4 c 0.0399,-0.0021 0.0806,0.03634 0.0806,0.115239 0,0.03377 0.002,0.05018 0.003,0.0646 0.0134,0.0063 0.0243,0.028 0.0362,0.04392 0.0125,-0.01291 0.0276,-0.02056 0.0429,-0.02223 0.0212,-0.0024 0.0418,0.0084 0.0574,0.02894 0.005,-0.0021 0.0109,-0.0038 0.0165,-0.0047 5.3e-4,-5.8e-5 5.3e-4,5.29e-4 0.002,5.29e-4 h 5.2e-4 c 0.008,-0.0045 0.0174,-0.0071 0.0274,-0.0078 0.0232,-0.0011 0.0512,0.0099 0.0765,0.03617 0.005,0.0044 0.008,0.0085 0.0119,0.01447 0.003,0.0039 0.006,0.0079 0.009,0.01241 0.0323,0.04837 0.0359,0.05055 0.0522,0.09767 0.007,-0.228936 0.025,-0.458192 0.12299,-0.668176 0.0262,-0.05631 0.0638,-0.07991 0.0956,-0.07855 z m 0.40721,0.581358 c -7.9e-4,2.65e-4 -0.002,5.3e-4 -0.003,0.0011 0.002,2.64e-4 0.003,5.29e-4 0.005,0.0011 0,2.01e-4 -10e-4,-0.0024 -0.002,-0.0021 z m -0.0935,0.06718 c -0.005,0.0051 -0.0126,0.01233 -0.0202,0.01963 -1.6e-4,7.94e-4 -2.4e-4,0.0019 -5.3e-4,0.0026 0.006,-0.0045 0.012,-0.0089 0.0186,-0.01291 8e-4,-0.0031 0.002,-0.0062 0.002,-0.0093 z m 1.5472,0.06304 c -0.007,0.0091 -0.0108,0.01423 -0.0165,0.0217 0.002,-7.94e-4 0.003,-0.0013 0.005,-0.0021 0.007,-0.0034 0.0169,-0.02574 0.0119,-0.01963 z m 0.79375,0.198953 c -2e-5,5.29e-4 1e-5,0.0011 0,0.0016 0.003,0.0037 0.006,0.0055 0.007,0.0041 -0.002,-0.0019 -0.005,-0.0038 -0.007,-0.0057 z m -0.15297,0.0739 c -0.004,0.0054 -0.007,0.0108 -0.0108,0.01601 0.004,0.0024 0.008,0.0042 0.0114,0.0067 -2.5e-4,-0.0077 -5.3e-4,-0.01506 -5.3e-4,-0.02273 z m -2.96932,0.07907 c 5.3e-4,0.0011 7.9e-4,0.0019 0.001,0.0026 -1.9e-4,-7.94e-4 -2.3e-4,-0.0019 -5.3e-4,-0.0026 z m 0.001,0.0026 c 0.004,0.01765 0.009,0.03547 0.0124,0.05323 -2.7e-4,-0.0092 9e-5,-0.01857 5.2e-4,-0.0279 -0.002,-0.0035 -0.004,-0.0058 -0.006,-0.0093 -0.003,-0.0091 -0.005,-0.01124 -0.007,-0.01601 z m 3.00757,0.07751 c -0.002,7.93e-4 -0.004,0.0019 -0.006,0.0026 5.3e-4,0.0019 7.9e-4,0.0029 0.001,0.0041 0.002,-0.0019 0.003,-0.0039 0.005,-0.0057 9e-5,-2.64e-4 -1e-4,-5.29e-4 0,-0.0011 z" />
    </clipPath>
    <clipPath
       clipPathUnits="userSpaceOnUse"
       id="clipPath71118">
      <path
         id="path71120"
         style="fill:#ff0000;fill-opacity:1;fill-rule:nonzero;stroke:none;stroke-width:0.264583"
         d="M 184.2642,59.817537 V 149.33455 H 407.01547 V 59.817537 Z m 0.93328,28.6551 h 5.3e-4 c 0.0472,0.0027 0.0809,0.05852 0.0439,0.141592 -0.0103,0.02328 -0.023,0.04564 -0.031,0.06976 -0.011,0.03222 -0.0504,0.179017 -0.0574,0.222726 -0.006,0.03577 -0.003,0.07209 -0.006,0.108003 0.0198,-0.04409 0.0406,-0.08749 0.0615,-0.131257 0.0256,-0.05582 0.0547,-0.08623 0.0848,-0.08527 0.03,0.0011 0.0608,0.0332 0.0899,0.10232 0.0103,0.0232 -0.003,0.05034 -0.005,0.07545 -8e-4,0.01132 -0.001,0.01521 -0.002,0.02273 0.0182,-0.01019 0.0343,-0.01434 0.0501,-0.0098 0.0638,-0.0573 0.15374,-0.120314 0.22169,-0.05633 0.0174,0.01656 0.0142,0.0462 0.0212,0.06925 -0.003,0.03703 0.003,0.07584 -0.002,0.112654 -8e-4,0.0058 -0.002,0.01124 -0.003,0.01707 0.004,0.0016 0.006,0.0042 0.008,0.0078 0.002,-7.94e-4 0.003,-0.0013 0.005,-0.0021 0.0444,-0.01728 0.0899,-0.03212 0.13539,-0.04651 0.0278,-0.0088 0.0551,-0.02146 0.0842,-0.02326 0.0241,-0.0016 0.0476,0.0094 0.0713,0.01394 -0.003,0.03899 0.003,0.08016 -0.004,0.118337 0.006,-0.0013 0.009,-0.0021 0.0155,-0.0036 0.0413,-0.0093 0.078,-0.01598 0.1204,-0.01138 0.0144,0.0016 0.0349,-0.0016 0.0419,0.01085 0.005,0.0077 0.008,0.01598 0.0114,0.02429 0.0559,-0.0213 0.11145,-0.04407 0.16588,-0.06924 0.0142,-0.0072 0.0287,-0.01431 0.0429,-0.0217 0.0111,-0.0058 0.022,-0.01167 0.0331,-0.01757 0.005,-0.0066 0.01,-0.0131 0.015,-0.01963 0.0744,-0.02678 0.11202,-0.06338 0.14056,0.04806 0.001,-5.29e-4 0.002,-0.0011 0.003,-0.0016 0.0201,-0.0096 0.0401,-0.019 0.0605,-0.02791 0.0138,-0.0074 0.0272,-0.01476 0.0408,-0.02273 0.0281,-0.01508 0.0409,-0.02268 0.0501,-0.01498 0.0498,-0.01974 0.10028,-0.03855 0.15038,-0.05736 0.0628,-0.02439 0.10349,-0.05837 0.16329,0.04289 0.003,0.0043 0.004,0.0093 0.004,0.01394 0.0121,0.0019 0.0235,0.0074 0.0248,0.01757 0.002,0.02365 -0.003,0.04707 -0.009,0.07028 0.0255,-0.01135 0.0512,-0.02259 0.077,-0.03307 0.0212,-0.0086 0.0434,-0.01466 0.0646,-0.02326 0.0154,-0.0063 0.0303,-0.01402 0.045,-0.02169 0.005,-0.0026 0.0101,-0.01299 0.0139,-0.0093 0.0192,0.01707 0.0347,0.03011 0.0486,0.04134 0.0348,-0.01296 0.0698,-0.02524 0.10542,-0.03566 0.0114,-0.007 0.0229,-0.01392 0.0341,-0.02119 0.005,-0.0033 0.0101,-0.0068 0.015,-0.01035 0.0102,-0.02466 0.018,-0.04773 0.0537,-0.05736 0.0278,-0.0075 0.0576,0.0037 0.0863,0.0057 0.002,0.01532 0.004,0.03069 0.007,0.04599 0.0183,0.0087 0.0345,0.02209 0.046,0.03824 0.0176,0.02413 0.008,0.0512 0.003,0.07545 -0.002,0.0076 -0.003,0.01704 -0.005,0.02635 0.003,-0.0028 0.007,-0.0055 0.0103,-0.0083 0.0427,-0.03363 0.0683,-0.05012 0.12041,-0.06666 -0.0208,-9.8e-5 0.0366,-0.006 0.0537,-5.29e-4 0.007,0.0024 0.015,0.0071 0.0233,0.01291 0.003,-0.01527 0.008,-0.03231 0.0165,-0.06615 l 0.002,5.29e-4 c 0.0163,-0.06518 0.0544,-0.09504 0.0889,-0.09508 0.0443,-5.8e-5 0.0825,0.04848 0.0615,0.132291 -0.0192,0.0764 -0.0182,0.05611 -0.0212,0.143145 -8e-4,0.01728 0.003,0.03455 0.001,0.05168 0.001,7.94e-4 0.002,0.0016 0.004,0.0026 0.0355,0.02747 0.0196,0.142946 0.0176,0.184486 -0.006,0.02373 -0.0103,0.0567 -0.0274,0.077 -0.0225,0.02668 -0.0512,0.04641 -0.0811,0.0646 -0.002,0.0054 -0.003,0.01114 -0.005,0.01654 -0.004,0.01527 -0.008,0.03072 -0.0155,0.04496 -0.007,0.01431 -0.0168,0.02646 -0.0258,0.03979 -0.003,7.94e-4 -0.007,0.0021 -0.01,0.0031 -0.01,0.01376 -0.0187,0.02109 -0.0191,0.0093 -3e-5,-7.93e-4 5.3e-4,-0.0019 5.3e-4,-0.0026 -0.0509,0.01828 -0.10758,0.03839 -0.11731,-0.05943 -7e-5,-7.94e-4 2e-5,-0.0013 0,-0.0021 -0.0376,-0.0066 -0.0725,-0.02657 -0.10852,-0.06667 -0.003,2.65e-4 -0.006,0.0019 -0.009,0.0011 -0.008,-0.0024 -0.0137,-0.0077 -0.0217,-0.01035 -0.003,-7.94e-4 -0.005,-0.0019 -0.007,-0.0026 -0.0313,0.02913 -0.057,0.04627 -0.0971,0.06201 -0.009,0.0037 -0.0215,0.01445 -0.0295,0.0078 -0.0309,-0.02699 -0.0527,-0.04413 -0.0672,-0.05684 -0.015,0.0059 -0.0344,0.01251 -0.0594,0.02222 -0.008,-0.01035 -0.0167,-0.01979 -0.0259,-0.02945 -0.002,-2.65e-4 -0.002,-2.28e-4 -0.002,-5.3e-4 2e-5,-1.64e-4 -0.009,2.9e-5 -0.0191,0.0011 -0.0111,0.006 -0.0252,0.0096 -0.0424,0.01035 -0.0984,0.0045 -0.11304,-0.02661 -0.0992,-0.06201 -0.009,0.0069 -0.0175,0.01392 -0.0269,0.02016 -0.0929,0.06161 -0.14229,0.08645 -0.23409,0.136424 -0.0317,0.01871 -0.0636,0.03728 -0.0951,0.05633 -0.0615,0.03719 -0.0964,0.08114 -0.11007,-0.04496 -0.0471,-0.02387 -0.0421,-0.04053 -0.0171,-0.05891 -0.004,-0.0089 -0.009,-0.01955 -0.0139,-0.03255 -0.0259,0.01722 -0.052,0.03432 -0.0796,0.04857 -0.0948,0.04897 -0.13578,0.06158 -0.22738,0.0956 -0.075,0.0177 -0.12396,0.02259 -0.13229,-0.01138 -0.034,0.0065 -0.0871,0.01447 -0.0977,0.0047 -0.0304,-0.02843 -0.0431,-0.07127 -0.0646,-0.106971 0.0132,-0.01021 0.0258,-0.02133 0.0388,-0.03204 -0.0538,0.01868 -0.0936,0.0284 -0.17105,0.04909 -0.007,-0.0021 -0.0155,-0.0027 -0.0243,-0.0031 -0.009,0.0026 -0.0186,0.0058 -0.0279,0.0083 -5.3e-4,-0.0033 -0.001,-0.0065 -0.002,-0.0098 h -5.3e-4 c -0.0131,-0.0019 -0.0235,-0.0066 -0.0274,-0.0181 -0.009,-0.02421 -0.0129,-0.04515 -0.0134,-0.06356 -0.17839,0.07184 -0.36638,0.115496 -0.55448,0.154514 -0.0127,0.0055 -0.0261,0.0097 -0.0403,0.01138 -0.008,0.0011 -0.0167,0.0046 -0.0248,0.0057 -2.6e-4,1.33e-4 -8e-4,-1.32e-4 -0.001,0 -7.9e-4,2.65e-4 -0.002,5.29e-4 -0.003,0.0011 -7.9e-4,2.64e-4 -0.001,7.93e-4 -0.002,0.0011 -0.01,0.0043 -0.0186,0.0069 -0.0233,0.0016 0.0177,0.06152 0.0481,0.143799 0.10749,0.289907 0.1055,0.259527 0.13038,0.329673 0.34365,0.506428 0.10753,0.08912 0.10467,0.0725 0.19947,0.04392 -0.003,-0.008 -0.007,-0.0163 -0.0104,-0.02429 -0.0591,-0.141748 0.23746,-0.0029 0.12093,0.09715 -0.0315,0.02701 -0.0625,0.05412 -0.0941,0.08113 -0.0538,0.0013 -0.10995,0.0182 -0.16175,0.0036 -0.0618,-0.01717 -0.11893,-0.05307 -0.16743,-0.09509 -0.22287,-0.193331 -0.27091,-0.290496 -0.37672,-0.562239 -0.0552,-0.14178 -0.11212,-0.284541 -0.14521,-0.433049 -0.005,-0.02339 1.4e-4,-0.04789 5.2e-4,-0.07183 -0.0126,9e-5 -0.0264,-0.0013 -0.0413,-0.0047 -0.008,-0.0019 -0.0151,-0.0034 -0.0217,-0.0052 -8e-4,0.0034 -0.003,0.0061 -0.003,0.0098 2.4e-4,5.29e-4 2.1e-4,0.0013 5.3e-4,0.0021 5.3e-4,0.0016 -0.002,0.0057 -0.002,0.0041 -2e-5,-7.94e-4 -4e-5,-0.0013 0,-0.0021 -0.002,0.0131 8e-4,0.03036 -0.0103,0.03617 -0.0238,0.01238 -0.043,0.0172 -0.0594,0.01757 -0.009,0.04497 -0.0214,0.07416 -0.0532,0.0217 -0.006,-0.01021 -0.0128,-0.02008 -0.0186,-0.03049 0.0268,0.102563 0.0544,0.204817 0.0863,0.305925 0.004,0.01159 0.0239,0.0302 0.0124,0.0341 -0.0474,0.01619 -0.0999,0.0087 -0.14986,0.01291 -0.005,2.65e-4 -0.007,7.94e-4 -0.0103,0.0011 2.3e-4,0.0013 2.5e-4,0.0027 5.3e-4,0.0041 0.0691,0.0011 0.27203,-0.0035 0.16329,0.01188 -0.0503,0.0071 -0.10049,0.02709 -0.15089,0.02119 -0.0119,-0.0013 -0.0107,-0.01923 -0.0124,-0.03307 -0.0246,-2.65e-4 -0.0305,-0.0013 -5.3e-4,-0.0041 -2.3e-4,-0.0013 -1.1e-4,-0.0024 -5.3e-4,-0.0036 -0.035,-0.111229 -0.0659,-0.223531 -0.0951,-0.336415 -0.0347,-0.136631 -0.0717,-0.273281 -0.093,-0.412896 -0.004,-0.0289 -0.006,-0.05817 -0.008,-0.08733 -0.009,-0.126042 -0.008,-0.09565 -0.008,-0.194821 h -5.3e-4 c 0,-0.07383 0.0355,-0.1124 0.0729,-0.115239 h 5.3e-4 c 0.0399,-0.0021 0.0806,0.03634 0.0806,0.115239 0,0.03377 0.002,0.05018 0.003,0.0646 0.0134,0.0063 0.0243,0.028 0.0362,0.04392 0.0125,-0.01291 0.0276,-0.02056 0.0429,-0.02223 0.0212,-0.0024 0.0418,0.0084 0.0574,0.02894 0.005,-0.0021 0.0109,-0.0038 0.0165,-0.0047 5.3e-4,-5.8e-5 5.3e-4,5.29e-4 0.002,5.29e-4 h 5.2e-4 c 0.008,-0.0045 0.0174,-0.0071 0.0274,-0.0078 0.0232,-0.0011 0.0512,0.0099 0.0765,0.03617 0.005,0.0044 0.008,0.0085 0.0119,0.01447 0.003,0.0039 0.006,0.0079 0.009,0.01241 0.0323,0.04837 0.0359,0.05055 0.0522,0.09767 0.007,-0.228936 0.025,-0.458192 0.12299,-0.668176 0.0262,-0.05631 0.0638,-0.07991 0.0956,-0.07855 z m 0.40721,0.581358 c -7.9e-4,2.65e-4 -0.002,5.3e-4 -0.003,0.0011 0.002,2.64e-4 0.003,5.29e-4 0.005,0.0011 0,2.01e-4 -10e-4,-0.0024 -0.002,-0.0021 z m -0.0935,0.06718 c -0.005,0.0051 -0.0126,0.01233 -0.0202,0.01963 -1.6e-4,7.94e-4 -2.4e-4,0.0019 -5.3e-4,0.0026 0.006,-0.0045 0.012,-0.0089 0.0186,-0.01291 8e-4,-0.0031 0.002,-0.0062 0.002,-0.0093 z m 1.5472,0.06304 c -0.007,0.0091 -0.0108,0.01423 -0.0165,0.0217 0.002,-7.94e-4 0.003,-0.0013 0.005,-0.0021 0.007,-0.0034 0.0169,-0.02574 0.0119,-0.01963 z m 0.79375,0.198953 c -2e-5,5.29e-4 1e-5,0.0011 0,0.0016 0.003,0.0037 0.006,0.0055 0.007,0.0041 -0.002,-0.0019 -0.005,-0.0038 -0.007,-0.0057 z m -0.15297,0.0739 c -0.004,0.0054 -0.007,0.0108 -0.0108,0.01601 0.004,0.0024 0.008,0.0042 0.0114,0.0067 -2.5e-4,-0.0077 -5.3e-4,-0.01506 -5.3e-4,-0.02273 z m -2.96932,0.07907 c 5.3e-4,0.0011 7.9e-4,0.0019 0.001,0.0026 -1.9e-4,-7.94e-4 -2.3e-4,-0.0019 -5.3e-4,-0.0026 z m 0.001,0.0026 c 0.004,0.01765 0.009,0.03547 0.0124,0.05323 -2.7e-4,-0.0092 9e-5,-0.01857 5.2e-4,-0.0279 -0.002,-0.0035 -0.004,-0.0058 -0.006,-0.0093 -0.003,-0.0091 -0.005,-0.01124 -0.007,-0.01601 z m 3.00757,0.07751 c -0.002,7.93e-4 -0.004,0.0019 -0.006,0.0026 5.3e-4,0.0019 7.9e-4,0.0029 0.001,0.0041 0.002,-0.0019 0.003,-0.0039 0.005,-0.0057 9e-5,-2.64e-4 -1e-4,-5.29e-4 0,-0.0011 z" />
    </clipPath>
  </defs>
  <g
     inkscape:label="Layer 1"
     inkscape:groupmode="layer"
     id="layer1">
    <rect
       style="fill:#ffffff;stroke:#000000;stroke-width:0.3;stroke-linejoin:round"
       id="rect846"
       width="20"
       height="30"
       x="59.329788"
       y="50.202126"
       rx="3"
       ry="3" />
    <rect
       style="fill:#ffffff;stroke:#000000;stroke-width:0.3;stroke-linejoin:round"
       id="rect950"
       width="8.0744686"
       height="22.292553"
       x="40.547871"
       y="59.505318"
       rx="3.0000045"
       ry="3.0000045" />
    <path
       style="fill:none;stroke:#000000;stroke-width:0.264583px;stroke-linecap:butt;stroke-linejoin:miter;stroke-opacity:1"
       d="m 48.622336,70.651591 c 3.627927,0 7.220966,0 10.831052,0"
       id="path1065"
       inkscape:path-effect="#path-effect1067"
       inkscape:original-d="m 48.622336,70.651591 c 3.627927,2.65e-4 7.220966,2.65e-4 10.831052,0" />
    <path
       sodipodi:type="star"
       style="fill:#ffffff;stroke:#000000;stroke-width:1.13386;stroke-linejoin:round"
       id="path1141"
       inkscape:flatsided="true"
       sodipodi:sides="3"
       sodipodi:cx="457.8555"
       sodipodi:cy="189.52216"
       sodipodi:r1="47.023876"
       sodipodi:r2="23.511938"
       sodipodi:arg1="2.0943951"
       sodipodi:arg2="3.1415927"
       inkscape:rounded="0"
       inkscape:randomized="0"
       d="m 434.34356,230.24603 0,-81.44775 70.53582,40.72388 z"
       transform="matrix(0.26458333,0,0,0.26458333,-14.879506,11.830607)"
       inkscape:transform-center-x="-3.1104319" />
    <path
       style="fill:none;stroke:#000000;stroke-width:0.264583px;stroke-linecap:butt;stroke-linejoin:miter;stroke-opacity:1"
       d="m 100.22674,57.343351 c -4.612852,0 -9.225971,0 -13.839354,0"
       id="path1256"
       inkscape:path-effect="#path-effect1258"
       inkscape:original-d="m 100.22674,57.343351 c -4.612852,2.65e-4 -9.225971,2.65e-4 -13.839354,0" />
    <text
       xml:space="preserve"
       style="font-style:normal;font-variant:normal;font-weight:normal;font-stretch:normal;font-size:7.05556px;line-height:1.25;font-family:sans-serif;-inkscape-font-specification:'sans-serif, Normal';font-variant-ligatures:normal;font-variant-caps:normal;font-variant-numeric:normal;font-variant-east-asian:normal;fill:#000000;fill-opacity:1;stroke:none;stroke-width:0.264583"
       x="81.360535"
       y="60.322224"
       id="text1856"><tspan
         sodipodi:role="line"
         id="tspan1854"
         style="font-style:normal;font-variant:normal;font-weight:normal;font-stretch:normal;font-size:7.05556px;font-family:sans-serif;-inkscape-font-specification:'sans-serif, Normal';font-variant-ligatures:normal;font-variant-caps:normal;font-variant-numeric:normal;font-variant-east-asian:normal;stroke-width:0.264583"
         x="81.360535"
         y="60.322224">1</tspan></text>
    <path
       style="fill:none;stroke:#000000;stroke-width:0.264583px;stroke-linecap:butt;stroke-linejoin:miter;stroke-opacity:1"
       d="m 118.70316,61.97501 c 5.28117,0 10.56207,0 15.84271,0"
       id="path8622"
       inkscape:path-effect="#path-effect8624"
       inkscape:original-d="m 118.70316,61.97501 c 5.28117,2.64e-4 10.56207,2.64e-4 15.84271,0" />
    <path
       style="fill:none;stroke:#000000;stroke-width:0.264583px;stroke-linecap:butt;stroke-linejoin:miter;stroke-opacity:1"
       d="M 134.54587,61.97501 V 23.831003 H 27.306357 v 41.456016 h 13.1567"
       id="path8626" />
    <path
       style="fill:none;stroke:#000000;stroke-width:0.264583px;stroke-linecap:butt;stroke-linejoin:miter;stroke-opacity:1"
       d="M 40.587175,76.209561 H 26.933998"
       id="path8743" />
    <path
       style="fill:none;stroke:#000000;stroke-width:0.264583px;stroke-linecap:butt;stroke-linejoin:miter;stroke-opacity:1"
       d="m 44.585104,81.797865 v 9.306073"
       id="path18018" />
    <ellipse
       style="fill:#ffffff;stroke:#000000;stroke-width:0.3;stroke-linejoin:round"
       id="path19732"
       cx="45.241669"
       cy="99.730263"
       rx="18.804152"
       ry="8.2539673" />
    <path
       style="fill:none;stroke:#000000;stroke-width:0.264583px;stroke-linecap:butt;stroke-linejoin:miter;stroke-opacity:1"
       d="M 79.329787,65.202125 H 100.22872"
       id="path19930" />
    <text
       xml:space="preserve"
       style="font-size:7.05556px;line-height:1.25;font-family:sans-serif;-inkscape-font-specification:'sans-serif, Normal';stroke-width:0.264583"
       x="40.463058"
       y="65.287018"
       id="text20946"><tspan
         sodipodi:role="line"
         id="tspan20944"
         style="stroke-width:0.264583"
         x="40.463058"
         y="65.287018">0</tspan></text>
    <text
       xml:space="preserve"
       style="font-size:7.05556px;line-height:1.25;font-family:sans-serif;-inkscape-font-specification:'sans-serif, Normal';stroke-width:0.264583"
       x="40.587173"
       y="76.209557"
       id="text21984"><tspan
         sodipodi:role="line"
         id="tspan21982"
         style="stroke-width:0.264583"
         x="40.587173"
         y="76.209557">1</tspan></text>
    <text
       xml:space="preserve"
       style="font-size:7.05556px;line-height:1.25;font-family:sans-serif;-inkscape-font-specification:'sans-serif, Normal';stroke-width:0.264583"
       x="63.19149"
       y="66"
       id="text25706"><tspan
         sodipodi:role="line"
         id="tspan25704"
         style="stroke-width:0.264583"
         x="63.19149"
         y="66">PC</tspan></text>
    <rect
       style="fill:#ffffff;stroke:#000000;stroke-width:0.3;stroke-linejoin:round"
       id="rect26338"
       width="31.432844"
       height="27.654388"
       x="100.56715"
       y="88.898804"
       rx="3.0000045"
       ry="3.0000045" />
    <path
       style="fill:none;stroke:#000000;stroke-width:0.264583px;stroke-linecap:butt;stroke-linejoin:miter;stroke-opacity:1"
       d="M 89.779252,65.202125 V 103.21276 H 100.22872"
       id="path26453" />
    <rect
       style="fill:#ffffff;stroke:#000000;stroke-width:0.3;stroke-linejoin:round"
       id="rect26557"
       width="12.989362"
       height="119.71277"
       x="151.30852"
       y="17.202127"
       rx="3.0000045"
       ry="3.0000045" />
    <rect
       style="fill:#ffffff;stroke:#000000;stroke-width:0.3;stroke-linejoin:round"
       id="rect26557-4"
       width="12.989362"
       height="119.71277"
       x="249.298"
       y="17.202129"
       rx="3.0000045"
       ry="3.0000045" />
    <rect
       style="fill:#ffffff;stroke:#000000;stroke-width:0.3;stroke-linejoin:round"
       id="rect26557-4-1"
       width="12.989362"
       height="119.71277"
       x="372.28699"
       y="17.202"
       rx="3.0000045"
       ry="3.0000045" />
    <path
       style="fill:none;stroke:#000000;stroke-width:0.264583px;stroke-linecap:butt;stroke-linejoin:miter;stroke-opacity:1"
       d="m 131.99998,102.726 h 19.133"
       id="path26672" />
    <path
       style="fill:none;stroke:#000000;stroke-width:0.264583px;stroke-linecap:butt;stroke-linejoin:miter;stroke-opacity:1"
       d="m 134.54587,61.97501 h 16.41157"
       id="path26674" />
    <path
       style="fill:none;stroke:#000000;stroke-width:0.264583px;stroke-linecap:butt;stroke-linejoin:miter;stroke-opacity:1"
       d="m 164.4734,102.68617 h 14.21809 V 54.23936 h 21.76596"
       id="path26676"
       clip-path="url(#clipPath71078)" />
    <path
       style="fill:none;stroke:#000000;stroke-width:0.264583px;stroke-linecap:butt;stroke-linejoin:miter;stroke-opacity:1"
       d="m 178.77925,62.92819 h 21.4149"
       id="path26793" />
    <rect
       style="fill:#ffffff;stroke:#000000;stroke-width:0.3;stroke-linejoin:round"
       id="rect26897"
       width="32.122341"
       height="39.670212"
       x="200.28191"
       y="48.446808"
       rx="3.0000045"
       ry="3.0000045" />
    <text
       xml:space="preserve"
       style="font-style:normal;font-variant:normal;font-weight:normal;font-stretch:normal;font-size:3.52778px;line-height:1.25;font-family:sans-serif;-inkscape-font-specification:'sans-serif, Normal';font-variant-ligatures:normal;font-variant-caps:normal;font-variant-numeric:normal;font-variant-east-asian:normal;stroke-width:0.264583"
       x="200.45744"
       y="54.239361"
       id="text28521"><tspan
         sodipodi:role="line"
         id="tspan28519"
         style="font-style:normal;font-variant:normal;font-weight:normal;font-stretch:normal;font-size:3.52778px;font-family:sans-serif;-inkscape-font-specification:'sans-serif, Normal';font-variant-ligatures:normal;font-variant-caps:normal;font-variant-numeric:normal;font-variant-east-asian:normal;stroke-width:0.264583"
         x="200.45744"
         y="54.239361">rs1</tspan></text>
    <text
       xml:space="preserve"
       style="font-style:normal;font-variant:normal;font-weight:normal;font-stretch:normal;font-size:3.52778px;line-height:1.25;font-family:sans-serif;-inkscape-font-specification:'sans-serif, Normal';font-variant-ligatures:normal;font-variant-caps:normal;font-variant-numeric:normal;font-variant-east-asian:normal;stroke-width:0.264583"
       x="200.19414"
       y="62.928192"
       id="text29713"><tspan
         sodipodi:role="line"
         id="tspan29711"
         style="font-style:normal;font-variant:normal;font-weight:normal;font-stretch:normal;font-size:3.52778px;font-family:sans-serif;-inkscape-font-specification:'sans-serif, Normal';font-variant-ligatures:normal;font-variant-caps:normal;font-variant-numeric:normal;font-variant-east-asian:normal;stroke-width:0.264583"
         x="200.19414"
         y="62.928192">rs2</tspan></text>
    <text
       xml:space="preserve"
       style="font-style:normal;font-variant:normal;font-weight:normal;font-stretch:normal;font-size:3.52778px;line-height:1.25;font-family:sans-serif;-inkscape-font-specification:'sans-serif, Normal';font-variant-ligatures:normal;font-variant-caps:normal;font-variant-numeric:normal;font-variant-east-asian:normal;stroke-width:0.264583"
       x="200.8511"
       y="70.338402"
       id="text41135"><tspan
         sodipodi:role="line"
         id="tspan41133"
         style="font-style:normal;font-variant:normal;font-weight:normal;font-stretch:normal;font-size:3.52778px;font-family:sans-serif;-inkscape-font-specification:'sans-serif, Normal';font-variant-ligatures:normal;font-variant-caps:normal;font-variant-numeric:normal;font-variant-east-asian:normal;stroke-width:0.264583"
         x="200.8511"
         y="70.338402">rd</tspan></text>
    <text
       xml:space="preserve"
       style="font-style:normal;font-variant:normal;font-weight:normal;font-stretch:normal;font-size:3.52778px;line-height:1.25;font-family:sans-serif;-inkscape-font-specification:'sans-serif, Normal';font-variant-ligatures:normal;font-variant-caps:normal;font-variant-numeric:normal;font-variant-east-asian:normal;stroke-width:0.264583"
       x="200.45744"
       y="82.5"
       id="text43437"><tspan
         sodipodi:role="line"
         id="tspan43435"
         style="font-style:normal;font-variant:normal;font-weight:normal;font-stretch:normal;font-size:3.52778px;font-family:sans-serif;-inkscape-font-specification:'sans-serif, Normal';font-variant-ligatures:normal;font-variant-caps:normal;font-variant-numeric:normal;font-variant-east-asian:normal;stroke-width:0.264583"
         x="200.45744"
         y="82.5">wr_data</tspan></text>
    <rect
       style="fill:#ffffff;stroke:#000000;stroke-width:0.3;stroke-linejoin:round"
       id="rect52612"
       width="7.0748291"
       height="23.086285"
       x="188.16562"
       y="72.237732"
       rx="3.0000045"
       ry="3.0000045"
       clip-path="url(#clipPath71088)" />
    <path
       style="fill:none;stroke:#000000;stroke-width:0.264583px;stroke-linecap:butt;stroke-linejoin:miter;stroke-opacity:1"
       d="m 178.69149,102.68617 h 21.1414"
       id="path52922" />
    <rect
       style="fill:#ffffff;stroke:#000000;stroke-width:0.494593;stroke-linejoin:round"
       id="rect52946"
       width="27.484123"
       height="10.60383"
       x="199.93018"
       y="97.384254"
       rx="8.3037205"
       ry="2.9459429" />
    <text
       xml:space="preserve"
       style="font-size:4.9389px;line-height:1.25;font-family:sans-serif;-inkscape-font-specification:'sans-serif, Normal';stroke-width:0.264583"
       x="203.6806"
       y="103.80325"
       id="text54042"><tspan
         sodipodi:role="line"
         id="tspan54040"
         style="stroke-width:0.264583"
         x="203.6806"
         y="103.80325">sign_ex</tspan></text>
    <path
       style="fill:none;stroke:#000000;stroke-width:0.264583px;stroke-linecap:butt;stroke-linejoin:miter;stroke-opacity:1"
       d="m 227.04194,100.07965 h 22.19208"
       id="path56327" />
    <text
       xml:space="preserve"
       style="font-style:normal;font-variant:normal;font-weight:normal;font-stretch:normal;font-size:3.52778px;line-height:1.25;font-family:sans-serif;-inkscape-font-specification:'sans-serif, Normal';font-variant-ligatures:normal;font-variant-caps:normal;font-variant-numeric:normal;font-variant-east-asian:normal;stroke-width:0.264583"
       x="227.84042"
       y="55.11702"
       id="text59267"><tspan
         sodipodi:role="line"
         id="tspan59265"
         style="font-style:normal;font-variant:normal;font-weight:normal;font-stretch:normal;font-size:3.52778px;font-family:sans-serif;-inkscape-font-specification:'sans-serif, Normal';font-variant-ligatures:normal;font-variant-caps:normal;font-variant-numeric:normal;font-variant-east-asian:normal;stroke-width:0.264583"
         x="227.84042"
         y="55.11702">r1</tspan></text>
    <text
       xml:space="preserve"
       style="font-style:normal;font-variant:normal;font-weight:normal;font-stretch:normal;font-size:3.52778px;line-height:1.25;font-family:sans-serif;-inkscape-font-specification:'sans-serif, Normal';font-variant-ligatures:normal;font-variant-caps:normal;font-variant-numeric:normal;font-variant-east-asian:normal;stroke-width:0.264583"
       x="227.31384"
       y="62.840424"
       id="text61603"><tspan
         sodipodi:role="line"
         id="tspan61601"
         style="font-style:normal;font-variant:normal;font-weight:normal;font-stretch:normal;font-size:3.52778px;font-family:sans-serif;-inkscape-font-specification:'sans-serif, Normal';font-variant-ligatures:normal;font-variant-caps:normal;font-variant-numeric:normal;font-variant-east-asian:normal;stroke-width:0.264583"
         x="227.31384"
         y="62.840424">r2</tspan></text>
    <path
       style="fill:none;stroke:#000000;stroke-width:0.264583px;stroke-linecap:butt;stroke-linejoin:miter;stroke-opacity:1"
       d="m 232.40425,54.151595 h 17.0266"
       id="path64220" />
    <path
       style="fill:none;stroke:#000000;stroke-width:0.264583px;stroke-linecap:butt;stroke-linejoin:miter;stroke-opacity:1"
       d="m 232.49202,61.611702 h 16.7633"
       id="path64222" />
    <path
       sodipodi:type="star"
       style="fill:#ffffff;stroke:#000000;stroke-width:1.13386;stroke-linejoin:round"
       id="path64326"
       inkscape:flatsided="true"
       sodipodi:sides="3"
       sodipodi:cx="1113.8951"
       sodipodi:cy="197.03802"
       sodipodi:r1="104.84047"
       sodipodi:r2="52.420235"
       sodipodi:arg1="2.0943951"
       sodipodi:arg2="3.1415927"
       inkscape:rounded="0"
       inkscape:randomized="0"
       d="m 1061.4749,287.83253 0,-181.58901 157.2607,90.7945 z"
       transform="matrix(0.26458333,0,0,0.26458333,26.329787,8.0744681)"
       inkscape:transform-center-x="-6.9347566" />
    <path
       style="fill:none;stroke:#000000;stroke-width:0.264583px;stroke-linecap:butt;stroke-linejoin:miter;stroke-opacity:1"
       d="m 262.24468,62.138297 h 11.76065 v 6.31915 h 15.9734"
       id="path64719" />
    <path
       style="fill:none;stroke:#000000;stroke-width:0.264583px;stroke-linecap:butt;stroke-linejoin:miter;stroke-opacity:1"
       d="m 348.78692,60.207445 h 23.34072"
       id="path66546" />
    <path
       style="fill:none;stroke:#000000;stroke-width:0.264583px;stroke-linecap:butt;stroke-linejoin:miter;stroke-opacity:1"
       d="m 262.42021,54.063828 h 31.94682 v -6.319147 h 12.81382"
       id="path68736" />
    <path
       sodipodi:type="star"
       style="fill:#ffffff;stroke:#000000;stroke-width:1.13386;stroke-linejoin:round"
       id="path68920"
       inkscape:flatsided="true"
       sodipodi:sides="3"
       sodipodi:cx="803.41095"
       sodipodi:cy="96.860443"
       sodipodi:r1="24.840916"
       sodipodi:r2="12.420458"
       sodipodi:arg1="2.0943951"
       sodipodi:arg2="3.1415927"
       inkscape:rounded="0"
       inkscape:randomized="0"
       d="m 790.99049,118.37331 0,-43.025731 37.26138,21.512864 z"
       transform="matrix(0.26458333,0,0,0.26458333,22.292553,92.680851)"
       inkscape:transform-center-x="-1.6431204" />
    <path
       style="fill:none;stroke:#000000;stroke-width:0.264583px;stroke-linecap:butt;stroke-linejoin:miter;stroke-opacity:1"
       d="m 164.33462,61.687543 h 8.19191 v 59.453387 l 59.20515,0"
       id="path69037"
       clip-path="url(#clipPath71098)" />
    <path
       style="fill:none;stroke:#000000;stroke-width:0.264583px;stroke-linecap:butt;stroke-linejoin:miter;stroke-opacity:1"
       d="m 229.49752,102.89532 v 12.16374 h 2.11004"
       id="path69039" />
    <path
       style="fill:none;stroke:#000000;stroke-width:0.264583px;stroke-linecap:butt;stroke-linejoin:miter;stroke-opacity:1"
       d="m 241.43419,118.30851 h 3.82778 v 39.67021 H 15.051861 V 76.3125 h 11.892287"
       id="path69234"
       clip-path="url(#clipPath71108)" />
    <path
       style="fill:none;stroke:#000000;stroke-width:0.264583px;stroke-linecap:butt;stroke-linejoin:miter;stroke-opacity:1"
       d="m 385.26788,59.949865 h 21.61509 V 149.20212 H 184.39627 V 89.345742 h 3.94947"
       id="path70602"
       clip-path="url(#clipPath71118)" />
    <text
       xml:space="preserve"
       style="font-size:3.52777px;line-height:1.25;font-family:sans-serif;-inkscape-font-specification:'sans-serif, Normal';stroke-width:0.264583"
       x="70.996529"
       y="182.20787"
       id="text73289"><tspan
         sodipodi:role="line"
         id="tspan73287"
         style="stroke-width:0.264583"
         x="70.996529"
         y="182.20787" /></text>
    <text
       xml:space="preserve"
       style="font-size:14.1111px;line-height:1.25;font-family:sans-serif;-inkscape-font-specification:'sans-serif, Normal';stroke-width:0.264583"
       x="67.024696"
       y="178.23604"
       id="text75999"><tspan
         sodipodi:role="line"
         id="tspan75997"
         style="stroke-width:0.264583"
         x="67.024696"
         y="178.23604">IF</tspan></text>
    <text
       xml:space="preserve"
       style="font-size:14.1111px;line-height:1.25;font-family:sans-serif;-inkscape-font-specification:'sans-serif, Normal';stroke-width:0.264583"
       x="196.60577"
       y="175.25716"
       id="text76795"><tspan
         sodipodi:role="line"
         id="tspan76793"
         style="stroke-width:0.264583"
         x="196.60577"
         y="175.25716">ID</tspan></text>
    <text
       xml:space="preserve"
       style="font-size:14.1111px;line-height:1.25;font-family:sans-serif;-inkscape-font-specification:'sans-serif, Normal';stroke-width:0.264583"
       x="297.39105"
       y="168.30646"
       id="text77723"><tspan
         sodipodi:role="line"
         id="tspan77721"
         style="stroke-width:0.264583"
         x="297.39105"
         y="168.30646">EX</tspan></text>
    <text
       xml:space="preserve"
       style="font-size:14.1111px;line-height:1.25;font-family:sans-serif;-inkscape-font-specification:'sans-serif, Normal';stroke-width:0.264583"
       x="438.8876"
       y="166.32054"
       id="text78123"><tspan
         sodipodi:role="line"
         id="tspan78121"
         style="stroke-width:0.264583"
         x="438.8876"
         y="166.32054">WB</tspan></text>
    <path
       style="fill:none;stroke:#000000;stroke-width:0.264583px;stroke-linecap:butt;stroke-linejoin:miter;stroke-opacity:1"
       d="M 191.70303,95.324019 V 131.4734"
       id="path78876" />
    <path
       style="fill:none;stroke:#000000;stroke-width:0.264583px;stroke-linecap:butt;stroke-linejoin:miter;stroke-opacity:1"
       d="M 229.49752,102.89532 Z"
       id="path117082" />
    <path
       style="fill:none;stroke:#000000;stroke-width:0.264583px;stroke-linecap:butt;stroke-linejoin:miter;stroke-opacity:1"
       d="m 229.49752,102.89532 h -2.05204"
       id="path117283" />
    <path
       style="fill:none;stroke:#000000;stroke-width:0.264583px;stroke-linecap:butt;stroke-linejoin:miter;stroke-opacity:1"
       d="m 271.63561,103.21276 c -3.08184,0 -6.16397,0 -9.24633,0"
       id="path1637"
       inkscape:path-effect="#path-effect1639"
       inkscape:original-d="m 271.63561,103.21276 c -3.08184,2.6e-4 -6.16397,2.6e-4 -9.24633,0" />
    <path
       style="fill:none;stroke:#000000;stroke-width:0.264583px;stroke-linecap:butt;stroke-linejoin:miter;stroke-opacity:1"
       d="m 289.97873,68.457447 c 1.97455,0 3.94885,0 5.92291,0"
       id="path1834"
       inkscape:path-effect="#path-effect1836"
       inkscape:original-d="m 289.97873,68.457447 c 1.97455,2.64e-4 3.94885,2.64e-4 5.92291,0" />
    <path
       style="fill:none;stroke:#000000;stroke-width:0.264583px;stroke-linecap:butt;stroke-linejoin:miter;stroke-opacity:1"
       d="m 295.90164,68.457447 v 6.510917 h 11.66725"
       id="path2178" />
  </g>
  <g
     inkscape:groupmode="layer"
     id="layer2"
     inkscape:label="Layer 2">
    <text
       xml:space="preserve"
       style="font-size:7.05556px;line-height:1.25;font-family:sans-serif;-inkscape-font-specification:'sans-serif, Normal';stroke-width:0.264583"
       x="33.139984"
       y="102.02649"
       id="text19364"><tspan
         sodipodi:role="line"
         id="tspan19362"
         style="stroke-width:0.264583"
         x="33.139984"
         y="102.02649">JumpPC</tspan></text>
    <ellipse
       style="fill:#ffffff;stroke:#000000;stroke-width:0.3;stroke-linejoin:round"
       id="path64971-8-8"
       cx="332.63297"
       cy="104.26596"
       rx="15.183511"
       ry="8.1622343" />
    <text
       xml:space="preserve"
       style="font-size:7.05556px;line-height:1.25;font-family:sans-serif;-inkscape-font-specification:'sans-serif, Normal';stroke-width:0.264583"
       x="319.34109"
       y="106.51871"
       id="text19364-6-2-1"><tspan
         sodipodi:role="line"
         id="tspan19362-0-2-3"
         style="stroke-width:0.264583"
         x="319.34109"
         y="106.51871">ALUop</tspan></text>
    <ellipse
       style="fill:#ffffff;stroke:#000000;stroke-width:0.3;stroke-linejoin:round"
       id="path64971-8-0"
       cx="191.68085"
       cy="137.96808"
       rx="15.183511"
       ry="8.1622343" />
    <text
       xml:space="preserve"
       style="font-size:7.05556px;line-height:1.25;font-family:sans-serif;-inkscape-font-specification:'sans-serif, Normal';stroke-width:0.264583"
       x="178.38898"
       y="140.22084"
       id="text19364-6-2-5"><tspan
         sodipodi:role="line"
         id="tspan19362-0-2-0"
         style="stroke-width:0.264583"
         x="178.38898"
         y="140.22084">ImmLoad</tspan></text>
    <path
       style="fill:none;stroke:#000000;stroke-width:0.264583px;stroke-linecap:butt;stroke-linejoin:miter;stroke-opacity:1"
       d="M 184.39627,89.34574 V 77.409573 h 3.94947"
       id="path71387" />
    <path
       style="fill:none;stroke:#000000;stroke-width:0.264583px;stroke-linecap:butt;stroke-linejoin:miter;stroke-opacity:1"
       d="m 271.63561,103.21276 v 16.19049 h 100.72381"
       id="path71584" />
    <path
       style="fill:none;stroke:#000000;stroke-width:0.264583px;stroke-linecap:butt;stroke-linejoin:miter;stroke-opacity:1"
       d="m 385.01962,119.40325 h 15.6391 V 152.9156 H 181.95963 V 88.029255 h 6.29835"
       id="path71586" />
    <path
       style="fill:none;stroke:#000000;stroke-width:0.264583px;stroke-linecap:butt;stroke-linejoin:miter;stroke-opacity:1"
       d="m 195.24044,83.780875 h 2.85477 v -1.861804 h 2.23416"
       id="path71703" />
    <path
       style="fill:none;stroke:#000000;stroke-width:0.264583px;stroke-linecap:butt;stroke-linejoin:miter;stroke-opacity:1"
       d="M 178.69149,54.23936 V 31.278192 h 70.56383"
       id="path71818" />
    <path
       style="fill:none;stroke:#000000;stroke-width:0.264583px;stroke-linecap:butt;stroke-linejoin:miter;stroke-opacity:1"
       d="M 262.33244,30.718085 H 372.47872"
       id="path71822" />
    <path
       style="fill:none;stroke:#000000;stroke-width:0.264583px;stroke-linecap:butt;stroke-linejoin:miter;stroke-opacity:1"
       d="m 385.46809,30.19149 h 21.06383 V 7.3723404 H 193.0851 V 68.948553"
       id="path71861" />
    <path
       style="fill:none;stroke:#000000;stroke-width:0.264583px;stroke-linecap:butt;stroke-linejoin:miter;stroke-opacity:1"
       d="m 193.0851,68.948553 h 7.05809"
       id="path71863" />
    <text
       xml:space="preserve"
       style="font-style:normal;font-variant:normal;font-weight:normal;font-stretch:normal;font-size:7.05556px;line-height:1.25;font-family:sans-serif;-inkscape-font-specification:'sans-serif, Normal';font-variant-ligatures:normal;font-variant-caps:normal;font-variant-numeric:normal;font-variant-east-asian:normal;stroke-width:0.264583"
       x="210.13483"
       y="93.834572"
       id="text90899"><tspan
         sodipodi:role="line"
         id="tspan90897"
         style="font-style:normal;font-variant:normal;font-weight:normal;font-stretch:normal;font-size:7.05556px;font-family:sans-serif;-inkscape-font-specification:'sans-serif, Normal';font-variant-ligatures:normal;font-variant-caps:normal;font-variant-numeric:normal;font-variant-east-asian:normal;stroke-width:0.264583"
         x="210.13483"
         y="93.834572">RegWrite</tspan></text>
    <path
       style="fill:none;stroke:#000000;stroke-width:0.264583px;stroke-linecap:butt;stroke-linejoin:miter;stroke-opacity:1"
       d="M 332.57902,95.882551 V 69.755331"
       id="path91735" />
    <text
       xml:space="preserve"
       style="font-size:3.84317px;line-height:1.25;font-family:sans-serif;-inkscape-font-specification:'sans-serif, Normal';stroke-width:0.144119"
       x="133.69794"
       y="82.389877"
       id="text25706-6"
       transform="scale(0.80050513,1.2492112)"><tspan
         sodipodi:role="line"
         id="tspan25704-9"
         style="stroke-width:0.144119"
         x="133.69794"
         y="82.389877">INSTR_MEM</tspan></text>
    <text
       xml:space="preserve"
       style="font-size:2.82223px;line-height:1.25;font-family:sans-serif;-inkscape-font-specification:'sans-serif, Normal';stroke-width:0.264583"
       x="246.99841"
       y="144.47545"
       id="text104077"><tspan
         sodipodi:role="line"
         id="tspan104075"
         style="stroke-width:0.264583"
         x="246.99841"
         y="144.47545">jump_addr_from_ID</tspan></text>
    <text
       xml:space="preserve"
       style="font-size:2.82223px;line-height:1.25;font-family:sans-serif;-inkscape-font-specification:'sans-serif, Normal';stroke-width:0.264583"
       x="48.622334"
       y="70.651588"
       id="text107009"><tspan
         sodipodi:role="line"
         id="tspan107007"
         style="stroke-width:0.264583"
         x="48.622334"
         y="70.651588">PC_mux_out</tspan></text>
    <text
       xml:space="preserve"
       style="font-size:2.82223px;line-height:1.25;font-family:sans-serif;-inkscape-font-specification:'sans-serif, Normal';stroke-width:0.264583"
       x="92.345139"
       y="77.45076"
       id="text107871"><tspan
         sodipodi:role="line"
         id="tspan107869"
         style="stroke-width:0.264583"
         x="92.345139"
         y="77.45076">PC</tspan></text>
    <text
       xml:space="preserve"
       style="font-size:2.82223px;line-height:1.25;font-family:sans-serif;-inkscape-font-specification:'sans-serif, Normal';stroke-width:0.264583"
       x="118.70316"
       y="61.97501"
       id="text108865"><tspan
         sodipodi:role="line"
         id="tspan108863"
         style="stroke-width:0.264583"
         x="118.70316"
         y="61.97501">PC_next</tspan></text>
    <text
       xml:space="preserve"
       style="font-size:2.82223px;line-height:1.25;font-family:sans-serif;-inkscape-font-specification:'sans-serif, Normal';stroke-width:0.264583"
       x="141.56647"
       y="102.726"
       id="text110213"><tspan
         sodipodi:role="line"
         id="tspan110211"
         style="stroke-width:0.264583"
         x="141.56647"
         y="102.726">IF_instr</tspan></text>
    <text
       xml:space="preserve"
       style="font-size:2.82223px;line-height:1.25;font-family:sans-serif;-inkscape-font-specification:'sans-serif, Normal';stroke-width:0.264583"
       x="161.73795"
       y="105.70737"
       id="text110213-5"><tspan
         sodipodi:role="line"
         id="tspan110211-5"
         style="stroke-width:0.264583"
         x="161.73795"
         y="105.70737">ID_instr</tspan></text>
    <text
       xml:space="preserve"
       style="font-size:2.82223px;line-height:1.25;font-family:sans-serif;-inkscape-font-specification:'sans-serif, Normal';stroke-width:0.264583"
       x="134.54587"
       y="61.97501"
       id="text112209"><tspan
         sodipodi:role="line"
         id="tspan112207"
         style="stroke-width:0.264583"
         x="134.54587"
         y="61.97501">IF_PC_next</tspan></text>
    <text
       xml:space="preserve"
       style="font-size:2.82223px;line-height:1.25;font-family:sans-serif;-inkscape-font-specification:'sans-serif, Normal';stroke-width:0.264583"
       x="158.59149"
       y="60.291237"
       id="text112209-9"><tspan
         sodipodi:role="line"
         id="tspan112207-4"
         style="stroke-width:0.264583"
         x="158.59149"
         y="60.291237">ID_PC_next</tspan></text>
    <text
       xml:space="preserve"
       style="font-size:2.82223px;line-height:1.25;font-family:sans-serif;-inkscape-font-specification:'sans-serif, Normal';stroke-width:0.264583"
       x="238.13799"
       y="100.07965"
       id="text119117"><tspan
         sodipodi:role="line"
         id="tspan119115"
         style="stroke-width:0.264583"
         x="238.13799"
         y="100.07965">ID_ImmData</tspan></text>
    <text
       xml:space="preserve"
       style="font-size:2.82223px;line-height:1.25;font-family:sans-serif;-inkscape-font-specification:'sans-serif, Normal';stroke-width:0.264583"
       x="385.86398"
       y="118.29626"
       id="text119117-2"><tspan
         sodipodi:role="line"
         id="tspan119115-2"
         style="stroke-width:0.264583"
         x="385.86398"
         y="118.29626">WB_ImmData</tspan></text>
    <text
       xml:space="preserve"
       style="font-size:2.82223px;line-height:1.25;font-family:sans-serif;-inkscape-font-specification:'sans-serif, Normal';stroke-width:0.264583"
       x="229.49751"
       y="108.97719"
       id="text122763"><tspan
         sodipodi:role="line"
         id="tspan122761"
         style="stroke-width:0.264583"
         x="229.49751"
         y="108.97719">signext_jmp</tspan></text>
    <text
       xml:space="preserve"
       style="font-size:2.82223px;line-height:1.25;font-family:sans-serif;-inkscape-font-specification:'sans-serif, Normal';stroke-width:0.264583"
       x="385.26788"
       y="59.949863"
       id="text126586"><tspan
         sodipodi:role="line"
         id="tspan126584"
         style="stroke-width:0.264583"
         x="385.26788"
         y="59.949863">WB_alu_res</tspan></text>
    <text
       xml:space="preserve"
       style="font-size:2.82223px;line-height:1.25;font-family:sans-serif;-inkscape-font-specification:'sans-serif, Normal';stroke-width:0.264583"
       x="198.0952"
       y="83.780876"
       id="text128537"><tspan
         sodipodi:role="line"
         id="tspan128535"
         style="stroke-width:0.264583"
         x="198.0952"
         y="83.780876">wr</tspan></text>
    <text
       xml:space="preserve"
       style="font-size:2.82223px;line-height:1.25;font-family:sans-serif;-inkscape-font-specification:'sans-serif, Normal';stroke-width:0.264583"
       x="385.46811"
       y="30.19149"
       id="text159243"><tspan
         sodipodi:role="line"
         id="tspan159241"
         style="stroke-width:0.264583"
         x="385.46811"
         y="30.19149">WB_write_reg_num</tspan></text>
    <text
       xml:space="preserve"
       style="font-size:2.82223px;line-height:1.25;font-family:sans-serif;-inkscape-font-specification:'sans-serif, Normal';stroke-width:0.264583"
       x="232.40425"
       y="54.151596"
       id="text163783"><tspan
         sodipodi:role="line"
         id="tspan163781"
         style="stroke-width:0.264583"
         x="232.40425"
         y="54.151596">ID_r1_out</tspan></text>
    <text
       xml:space="preserve"
       style="font-size:2.82223px;line-height:1.25;font-family:sans-serif;-inkscape-font-specification:'sans-serif, Normal';stroke-width:0.264583"
       x="232.49202"
       y="61.611702"
       id="text164687"><tspan
         sodipodi:role="line"
         id="tspan164685"
         style="stroke-width:0.264583"
         x="232.49202"
         y="61.611702">ID_r2_out</tspan></text>
    <text
       xml:space="preserve"
       style="font-size:4.23333px;line-height:1.25;font-family:sans-serif;-inkscape-font-specification:'sans-serif, Normal';stroke-width:0.264583"
       x="213.9734"
       y="31.278193"
       id="text6376"><tspan
         sodipodi:role="line"
         id="tspan6374"
         style="stroke-width:0.264583"
         x="213.9734"
         y="31.278193">ID_write_reg_num</tspan></text>
    <text
       xml:space="preserve"
       style="font-size:3.52777px;line-height:1.25;font-family:sans-serif;-inkscape-font-specification:'sans-serif, Normal';stroke-width:0.264583"
       x="262.33243"
       y="30.718086"
       id="text14216"><tspan
         sodipodi:role="line"
         id="tspan14214"
         style="stroke-width:0.264583"
         x="262.33243"
         y="30.718086">EX_write_reg_num</tspan></text>
    <text
       xml:space="preserve"
       style="font-size:3.52777px;line-height:1.25;font-family:sans-serif;-inkscape-font-specification:'sans-serif, Normal';stroke-width:0.264583"
       x="262.4202"
       y="54.063828"
       id="text15738"><tspan
         sodipodi:role="line"
         id="tspan15736"
         style="stroke-width:0.264583"
         x="262.4202"
         y="54.063828">EX_r1_out</tspan></text>
    <text
       xml:space="preserve"
       style="font-size:3.52777px;line-height:1.25;font-family:sans-serif;-inkscape-font-specification:'sans-serif, Normal';stroke-width:0.264583"
       x="262.24469"
       y="62.138298"
       id="text16930"><tspan
         sodipodi:role="line"
         id="tspan16928"
         style="stroke-width:0.264583"
         x="262.24469"
         y="62.138298">EX_r2_out</tspan></text>
    <text
       xml:space="preserve"
       style="font-size:3.52777px;line-height:1.25;font-family:sans-serif;-inkscape-font-specification:'sans-serif, Normal';stroke-width:0.264583"
       x="262.38928"
       y="103.21275"
       id="text17726"><tspan
         sodipodi:role="line"
         id="tspan17724"
         style="stroke-width:0.264583"
         x="262.38928"
         y="103.21275">EX_ImmData</tspan></text>
    <text
       xml:space="preserve"
       style="font-size:3.52777px;line-height:1.25;font-family:sans-serif;-inkscape-font-specification:'sans-serif, Normal';stroke-width:0.264583"
       x="348.7869"
       y="60.207443"
       id="text20574"><tspan
         sodipodi:role="line"
         id="tspan20572"
         style="stroke-width:0.264583"
         x="348.7869"
         y="60.207443">EX_alu_res</tspan></text>
  </g>
</svg>
